<svg xmlns="http://www.w3.org/2000/svg" xmlns:xlink="http://www.w3.org/1999/xlink" xml:space="preserve" id="Layer_1" x="0" y="0" style="enable-background:new 0 0 1648 1444.6" version="1.1" viewBox="0 0 1648 1444.6"><style>.st7{fill:#00488e}.st8{fill:#f7a800}.st10,.st9{fill:#fff}.st10{fill-rule:evenodd;clip-rule:evenodd}.st13{enable-background:new}.st21{fill:none;stroke:#3d3d3d;stroke-width:.5;stroke-miterlimit:10}</style><linearGradient id="SVGID_1_" x1="89.581" x2="1215.591" y1="-62.155" y2="247.145" gradientTransform="matrix(1.02 -.00285 -.00308 1 -35.216 814.898)" gradientUnits="userSpaceOnUse"><stop offset="0" style="stop-color:#3b3b3b;stop-opacity:0"/><stop offset=".11" style="stop-color:#3b3b3b;stop-opacity:.23"/><stop offset=".31" style="stop-color:#3b3b3b;stop-opacity:.83"/><stop offset=".36" style="stop-color:#3b3b3b"/><stop offset=".71" style="stop-color:#000"/><stop offset="1" style="stop-color:#000"/></linearGradient><path d="m1155.3 1131-879.6 157.8c-23.1 4.4-45.6-10.6-50-33.4l-78.3-264.6c-8.3-28.2-29.6-94.5-40-127.2-17.3-54.5-56.7-120.4 45.6-137.2L1039.8 537c23.1-4.4 45.6 10.6 50 33.4l94.7 509.8c4.4 22.9-6.1 46.4-29.2 50.8z" style="opacity:.2;fill:url(#SVGID_1_);enable-background:new"/><g id="VERSION_2"><linearGradient id="SVGID_00000124157821555921565370000014391142861998143366_" x1="1313.796" x2="206.716" y1="-2105.56" y2="-1700.449" gradientTransform="rotate(20.099 -5962.627 -126.192)" gradientUnits="userSpaceOnUse"><stop offset="0" style="stop-color:#393939"/><stop offset=".84" style="stop-color:#393939"/><stop offset="1" style="stop-color:#fff;stop-opacity:0"/></linearGradient><path d="M1428.4 887.3 550.8 740.6c-23.2-3.8-39-25.9-35.2-49L606 191.7c3.8-23.2 8.9-50 48.7-47.7L1531 308.7c23.2 3.8 39 25.9 35.2 49l-88.9 494.4c-3.7 23.2-25.8 39-48.9 35.2z" style="opacity:.1;fill:url(#SVGID_00000124157821555921565370000014391142861998143366_);enable-background:new"/><g style="opacity:.5"><linearGradient id="SVGID_00000115514893161333038410000015502998882806110629_" x1="1483.318" x2="584.088" y1="-116.198" y2="-479.629" gradientTransform="translate(0 814)" gradientUnits="userSpaceOnUse"><stop offset=".02" style="stop-color:#545454"/><stop offset=".93" style="stop-color:#3a3a3a"/><stop offset="1" style="stop-color:#3a3a3a;stop-opacity:.24"/><stop offset="1" style="stop-color:#3a3a3a;stop-opacity:0"/></linearGradient><path d="m1426.2 891.3-874-154.9c-22.8-3.7-37.3-16.2-33.5-39l95.1-505.1c3.7-22.8 24.4-47.7 47.2-43.9L1527.4 300c22.8 3.7 38.4 25.5 34.7 48.2l-87.5 508.3c-3.9 22.9-25.6 38.5-48.4 34.8z" style="opacity:.4;fill:url(#SVGID_00000115514893161333038410000015502998882806110629_);enable-background:new"/><linearGradient id="SVGID_00000067207811716885040040000003427837288091813536_" x1="1486.16" x2="526.74" y1="-222.651" y2="-377.731" gradientTransform="translate(0 814)" gradientUnits="userSpaceOnUse"><stop offset="0" style="stop-color:#545454"/><stop offset=".74" style="stop-color:#3b3b3b"/><stop offset="1" style="stop-color:#3a3a3a;stop-opacity:0"/></linearGradient><path d="M517.5 688.2c-3.7 22.8 11.8 44.5 34.7 48.2l874 154.9c22.8 3.7 44.5-11.8 48.2-34.7l87.5-508.3c3.7-22.8-11.8-44.5-34.7-48.2l-413.4-74.2-453-77.5s-39.9-11.3-47.2 43.9-96.1 495.9-96.1 495.9z" style="fill:url(#SVGID_00000067207811716885040040000003427837288091813536_)"/></g><linearGradient id="SVGID_00000034769687466560487210000007945032425550080950_" x1="479.733" x2="1138.043" y1="-1498.125" y2="-2285.425" gradientTransform="rotate(20.099 -5962.627 -126.192)" gradientUnits="userSpaceOnUse"><stop offset=".02" style="stop-color:#00a081"/><stop offset=".3" style="stop-color:#00b899"/><stop offset=".71" style="stop-color:#3ec3ae"/><stop offset="1" style="stop-color:#6dc3ae"/></linearGradient><path d="M1429.4 887.5 561.5 733.7c-22.6-3.7-38.1-25.3-34.4-47.9l93.7-505.5c3.7-22.6 25.3-38.1 47.9-34.4l861.1 154.5c22.6 3.7 38.1 25.3 34.4 47.9l-86.9 504.8c-3.7 22.7-25.2 38.1-47.9 34.4z" style="fill:url(#SVGID_00000034769687466560487210000007945032425550080950_);stroke:#038e73;stroke-width:.99;stroke-miterlimit:10"/><defs><path id="SVGID_00000022532643866192309000000009018528063987769234_" d="m1154.4 795.8 9.8-55c.8-4.3 4.9-7.2 9.2-6.5l267 47.4c4.3.8 7.2 4.9 6.5 9.2l-9.8 55c-.8 4.3-4.9 7.2-9.2 6.5l-267-47.4c-4.4-.7-7.3-4.8-6.5-9.2z"/></defs><clipPath id="SVGID_00000162352049014761251430000018246061909579355809_"><use xlink:href="#SVGID_00000022532643866192309000000009018528063987769234_" style="overflow:visible"/></clipPath><g style="clip-path:url(#SVGID_00000162352049014761251430000018246061909579355809_)"><path d="M1153.7 799.7c-.4 2.2 1.1 4.2 3.2 4.6l274.8 48.8c2.2.4 4.2-1.1 4.6-3.2l11.1-62.8c.4-2.2-1.1-4.2-3.2-4.6l-274.8-48.8c-2.2-.4-4.2 1.1-4.6 3.2l-11.1 62.8z" class="st7"/><path d="m1153 803.7 282.7 50.1 1.4-8.1-282.7-50.1-1.4 8.1z" class="st8"/><path d="m1403.5 795.3-5.3 16.3-15.1-21.2-8.7 27.8 5.1.9 5.8-18 14.8 22 8.9-26.9-5.5-.9zM1209.7 765.5l1.4-4.3-16.1-2.8-8.5 26.6s15.8 3.1 15.9 2.8 1.3-4.2 1.3-4.2l-10.6-1.9 2.5-7.6 10.7 1.9 1.5-4.4-10.6-1.9 2-6 10.5 1.8zM1181.6 760.5l9.3 1.6 1.3-4.3-14.6-2.6-8.6 26.5 5.3 1 3.9-11.8 9.3 1.7 1.4-4.4-9.3-1.7 2-6zM1254.6 768.9l-1.4 4.3-10.6-1.9-2 6 10.6 1.9-1.5 4.4-10.7-1.9-2.5 7.6 10.6 1.9s-1.2 3.9-1.3 4.2-15.9-2.8-15.9-2.8l8.5-26.6 16.2 2.9z" class="st9"/><path d="m1221.5 763.1-7.2-1.3-8.5 26.6 5.3.9h.3c.9.2 6.9 1.8 11.3.5 0 0 8.6-1.4 10.6-12.7 0 0 1.4-10.4-11.8-14zm-2.8 23s-5.2-.6-6.1-1v.1h-.2l5.8-18.1 3.9.6s5.6 1 6.2 7.4v.1c.5 6.5-5.2 11.2-9.6 10.9zM1265.6 770.9c8.2 1.9 6.8 9 6.8 9-1.8 7-7.9 6.9-7.9 6.9l4.7 12.9-5.6-1-4.7-12.4-.7-.2-3.5 11-5.4-1 8.5-26.6 7.8 1.4zm-3.7 3.8-2.4 7.4 2.7.5c5.6.3 5.3-5 5.3-5-.2-2.8-5.6-2.9-5.6-2.9zM1270 799.7l6.1 1.1 4.6-5.2 10.4 1.8.7 6.2 5.6 1-4.2-30-23.2 25.1zm14.2-8 5.5-6.2.8 7.4-6.3-1.2z" class="st10"/><path d="m1307.1 778.2 5.2.9-6.9 22.4 9 1.6-1.3 4.2-14.5-2.6 8.5-26.5z" class="st9"/><path d="m1344.9 813 6.1 1.1 4.6-5.2 10.4 1.8.7 6.2 5.6 1-4.2-30-23.2 25.1zm14.2-8 5.5-6.2.8 7.4-6.3-1.2zM1349 791.7c.4 4.3-4.5 6.7-4.5 6.7 6.2 6.1.4 11.3.4 11.3-3 3-10.1 1.7-10.1 1.7-1.1-.2-2-.5-2.7-.6v.1l-5.5-1 8.5-26.6 7.1 1.2c7.2 1.8 6.8 7.2 6.8 7.2zm-15.3 15c5.2 1.5 6.9.1 6.9.1 4.1-4.8-.9-6.9-.9-6.9-.6-.5-2.8-.8-3.7-.9l-2.5 7.7h.2zm5.9-18.6-.2.4-2.1 6.6 2.9.4c5.2-.9 3.6-5.1 3.6-5.1-.9-2-4.2-2.3-4.2-2.3z" class="st10"/><path d="m1426.8 799.5 6.1 1.1-14.6 9.6 9.1 17.4-6.3-1.1-7.5-13.2-1 .7-3.4 10.6-5.5-1 8.5-26.6 5.5 1-3 9.3 12.1-7.8z" class="st9"/></g><linearGradient id="SVGID_00000099636663323887148310000012555277141836132024_" x1="600.8" x2="1560.2" y1="-483.9" y2="-483.9" gradientTransform="translate(0 814)" gradientUnits="userSpaceOnUse"><stop offset="0" style="stop-color:#1d1e1f"/><stop offset="1" style="stop-color:#383838"/></linearGradient><path d="M1544.5 464.6 600.8 287.7l17.4-92.1 942 175.8z" style="fill:url(#SVGID_00000099636663323887148310000012555277141836132024_)"/><path d="m649 396.6 1.7-9.6-18.8-3.3.3-2c.3-1.7.9-2.9 2.1-4.3l14.9-16.8c1.9-2.1 3.1-2.6 5.2-2.3l7.2 1.2-4.1 23.4 6.4 1.1-.9 4.9-6.4-1.1-1.7 9.6-5.9-.8m4.9-33.1L639.5 380l12.1 2.1 3.2-18.4-.9-.2zM632 468.2l5.6-31.8-6.8 1.1-.9-5.3 9.8-1.8 5 .9-6.6 38-6.1-1.1M752.8 489.3l1.7-9.6-18.8-3.3.3-2c.3-1.7.9-2.9 2.1-4.2l14.9-16.8c1.9-2.1 3.1-2.6 5.2-2.3l7.1 1.2-4.1 23.4 6.4 1.1-.9 4.9-6.4-1.1-1.7 9.6-5.8-.9m4.9-33.1-14.4 16.5 12.1 2.1 3.2-18.4-.9-.2zM691.9 514.1l26.6 4.7-.6 3.9-22.3 31.1-6.6-1.1 21.5-29.8-19.5-3.4.9-5.4M685.6 626.7l5.6-31.8-6.8 1-.9-5.2 9.8-1.8 5 .9-6.6 38-6.1-1.1" class="st9"/><path d="m603.8 465.5-1.4-.2 8.8-50.8h.7L789.8 428l8.3-47.4 1.5.3-8.5 48.7-.7-.1L612.5 416l-8.7 49.5M578.5 610.6l-1.4-.2 8.8-50.9.7.1 177.9 13.5 8.3-47.4 1.5.3-8.5 48.7-.7-.1-177.9-13.5-8.7 49.5M591.2 538.1l-1.5-.3 8.9-50.8.7.1 177.9 13.5 8.3-47.4 1.4.2-8.5 48.7h-.6l-178-13.5-8.6 49.5M730.1 707.2l12.2 2.2-.3 1.3-10.7 14.9-2.1-.4 10.5-14.4-9.9-1.8.3-1.8M700.1 711.6l.3-1.7 3.7.6c1 .2 1.5.1 1.8-.2.3-.2.8-.9 1.1-2.4s0-2.3-.2-2.6c-.3-.4-.7-.6-1.6-.7l-3.6-.6c-1.1-.2-1.5-.1-1.8.1-.5.3-.8 1.2-1.2 2.9l-2-.3c.4-2.1.9-3.4 2-4.1.7-.4 1.5-.6 3-.3l4.4.8c1.4.2 2.2.6 2.7 1.3.7.9.8 2.2.5 3.9-.4 2.4-1.6 3.4-3 3.5 1.5.6 2.2 1.9 1.7 4.6-.4 2.2-1 3.3-1.9 4-.7.5-1.6.5-3 .3l-4.7-.8c-1.5-.3-2.3-.7-2.8-1.3-.7-1-.8-2.4-.4-4.9l2 .4c-.3 2.1-.2 3 .1 3.5.2.3.6.5 1.7.7l3.8.7c.9.2 1.4.2 1.8-.2.4-.2.8-.9 1.2-2.7.3-1.7.1-2.5-.1-2.9-.3-.4-.8-.6-1.7-.8l-3.8-.8M722.6 706c1.5.2 2.3.7 2.8 1.5.7.9.8 2.1.5 3.8-.4 2.5-1.5 3.4-3 3.5 1.5.6 2.2 1.9 1.8 4.6-.4 2.1-.9 3.1-1.9 3.8-.8.5-1.8.7-3.3.4l-4.4-.8c-1.5-.3-2.4-.7-3-1.5-.7-.9-.8-2.1-.5-4.2.5-2.7 1.6-3.7 3.2-3.8-1.4-.6-2-1.8-1.6-4.3.3-1.8.8-2.8 1.8-3.4.8-.5 1.7-.7 3.2-.4l4.4.8m-3.1 15.8c1 .2 1.5.1 2-.2s.8-.9 1.1-2.6c.3-1.6.2-2.4-.2-2.9s-.9-.7-1.8-.9l-3.6-.6c-1-.2-1.5-.1-2 .2-.5.4-.9 1.1-1.2 2.7-.3 1.7-.1 2.4.2 2.8.3.5.8.7 1.8.9l3.7.6zm1.4-8.3c.9.2 1.5.1 1.9-.2s.8-.8 1.1-2.3c.2-1.4.1-2.1-.2-2.5s-.8-.7-1.6-.8l-3.8-.7c-.9-.2-1.3-.1-1.8.2-.4.3-.8.9-1 2.3-.3 1.5-.1 2.2.2 2.6.3.4.8.7 1.7.9l3.5.5z" class="st9"/><path d="M695 365.5c4.1.7 5.8 1.3 7.2 3.2 1.8 2.3 2.8 6.3.8 17.8s-4.3 15-6.7 16.5c-1.9 1.2-3.7 1.2-7.9.5l-7.2-1.3c-4.1-.7-5.8-1.3-7.2-3.2-1.8-2.2-2.8-6.3-.8-17.8s4.3-14.9 6.7-16.5c1.9-1.2 3.7-1.2 7.8-.5l7.3 1.3m-8 4c-2.1-.4-2.8-.2-3.4.2-.8.5-2.1 2.2-4 12.7-1.8 10.5-1.2 12.5-.6 13.3.5.6 1 1 3.1 1.3l7 1.2c2.1.4 2.8.2 3.4-.2.8-.5 2.1-2.3 3.9-12.7 1.8-10.5 1.2-12.5.6-13.3-.5-.6-1-1-3.1-1.3l-6.9-1.2zM733.8 372.3c4.1.7 5.8 1.3 7.2 3.1 1.8 2.3 2.8 6.3.8 17.8s-4.3 15-6.7 16.5c-1.9 1.2-3.7 1.2-7.8.5l-7.2-1.3c-4.1-.7-5.8-1.3-7.2-3.2-1.8-2.2-2.8-6.3-.8-17.8s4.3-14.9 6.7-16.5c1.9-1.2 3.7-1.2 7.8-.5l7.2 1.4m-8 3.9c-2.1-.4-2.8-.2-3.4.2-.8.5-2.1 2.2-4 12.7-1.8 10.5-1.2 12.5-.6 13.3.5.6 1 1 3.1 1.3l7 1.2c2.1.4 2.8.2 3.4-.2.8-.5 2.1-2.2 4-12.7 1.8-10.5 1.2-12.5.6-13.3-.5-.6-1-1-3.1-1.3l-7-1.2zM772.5 379c4.1.7 5.8 1.3 7.2 3.2 1.8 2.3 2.8 6.3.8 17.8s-4.3 14.9-6.7 16.5c-2 1.2-3.7 1.2-7.9.5l-7.2-1.3c-4.1-.7-5.8-1.3-7.2-3.2-1.8-2.2-2.8-6.3-.8-17.8s4.3-14.9 6.7-16.5c2-1.2 3.7-1.2 7.8-.5l7.3 1.3m-8 4c-2.1-.4-2.8-.2-3.4.2-.8.5-2.1 2.2-4 12.7-1.8 10.5-1.2 12.5-.6 13.3.5.6 1 1 3.1 1.3l7 1.2c2.1.4 2.8.2 3.4-.2.8-.5 2.1-2.3 4-12.7 1.8-10.5 1.2-12.5.6-13.3-.5-.6-1-1-3.1-1.3l-7-1.2zM658.5 468.5c1.1-6.3 2.1-8.3 4.5-10 1.6-1.2 3.1-1.7 6.4-2.4l10.1-2c2-.4 2.7-1 3.2-1.6.6-.8 1-1.6 1.4-4.1.3-1.9.1-3.3-.3-4-.5-.7-1.3-1-3.4-1.4l-5.7-1c-2.1-.4-2.8-.1-3.4.3-.5.4-1.1 1.7-1.9 5.2l-6.2-1.1c1.2-5.8 2.4-7.9 4.3-9.3 1.5-1.1 3.7-1.3 7.3-.7l8.3 1.5c3.3.6 5.2 1.5 6.2 2.9 1.6 2.3 1.7 5.5 1.1 8.6-.7 4-1.6 5.8-3.2 7.4-1.5 1.4-3.5 2-6.8 2.8l-10.2 2.1c-1 .2-2.4.6-3.2 1.2-1 .8-1.5 1.6-2.1 4.9l-.1.5 21.9 3.8-.9 5.4-27.8-4.9.5-4.1M709.4 464.1l.9-5 7.7 1.3c1.8.3 2.6.2 3.3-.2.6-.4 1.4-1.8 1.9-4.4s.1-4.2-.3-4.7c-.4-.6-1.1-.9-3-1.2l-7-1.2c-1.8-.3-2.6-.2-3.2.2-.6.4-1.3 2.1-2.1 5.3l-6.2-1.1c.8-4.5 2.2-7.5 4.5-9.1 1.5-1 3.7-1.3 6.9-.7l9.7 1.7c3.3.6 5.1 1.4 6.2 2.9 1.6 2.3 1.7 5.5 1.1 8.6-.9 5-3.7 7.2-6.5 7.4v.1c3 1.1 4.9 3.9 3.9 9.6-.7 4.1-1.8 7.1-4.2 8.7-1.5 1-3.5 1.2-6.8.7l-10.3-1.8c-3.3-.6-5.3-1.5-6.3-3-1.6-2.3-1.8-5.5-.9-10.9l6.2 1.1c-.6 4.3-.5 5.9-.1 6.5.5.6 1.2.9 3 1.2l7.5 1.3c1.9.3 2.7.2 3.3-.2.6-.4 1.5-1.9 2-5s.2-4.9-.2-5.4c-.5-.6-1.1-.9-3-1.2l-8-1.5M610.7 520.1l4.7-19.3 25 4.4-.9 5.4-19.4-3.4-2.7 10.5.5.1c3-1.8 4.4-1.7 8.2-1l3.4.6c3.6.6 5.5 1.6 6.7 3.3 1.6 2.2 2 5 1 10.4-.9 5.3-2.3 7.9-4.5 9.5-1.7 1.2-3.9 1.6-7.5 1l-8.9-1.5c-3.2-.5-5.7-1.5-6.7-3.1-1.5-2.1-1.9-4.3-.9-10l6.2 1.1c-.5 3.7-.2 5.1.2 5.6.4.6 1.3 1 3 1.3l7.1 1.2c1.7.3 2.7.1 3.3-.3.8-.5 1.6-2 2.3-6s.4-5.5-.2-6.2c-.4-.5-1.2-1-3-1.3l-4.2-.7c-2.8-.5-4.7-.4-8.2.9l-4.5-2.5M654.8 526.7c3.6-2 4.8-2.2 7.1-1.8l6.4 1.1c3.6.6 5.5 1.4 6.7 3.1 1.5 2.1 1.6 4.8.7 9.6s-2.1 7.3-4.2 8.8c-1.7 1.2-3.8 1.6-7.2 1l-7.9-1.4c-4.1-.7-5.8-1.5-7.2-3.3-1.8-2.3-2.7-6.1-.7-17.6 1.9-11 4.2-14.7 6.8-16.4 2.1-1.3 4-1.3 8.3-.5l7.1 1.2c3.2.6 5 1.4 6 2.9 1.3 2 1.7 4.2.9 9.3l-6.3-1.1c.4-3.1.3-4.2-.1-4.9-.5-.7-1.2-1-2.8-1.3l-5.6-1c-2.4-.4-3.1-.2-3.8.2-1.2.6-2.5 2.5-4.2 12.1m4.4 3.1c-1.5-.3-3-.1-4.9.4-1.1 7.6-.5 9.5.1 10.2.5.7.9 1.1 3.2 1.5l6.3 1.1c1.9.3 2.8.3 3.6-.3.9-.6 1.4-2.1 1.9-4.8s.5-4.4-.2-5.3c-.6-.8-1.4-1.2-3.3-1.5l-6.7-1.3zM748.5 524c3.2.6 5 1.6 6.1 3.2 1.5 2 1.8 4.6 1.1 8.5-.9 5.4-3.2 7.3-6.4 7.2v.1c3.3 1.1 4.9 4 3.9 9.7-.7 4.2-2 6.8-4.2 8.2-1.7 1.2-3.8 1.6-7.3 1l-9.4-1.6c-3.5-.6-5.3-1.7-6.5-3.3-1.5-2.1-1.9-4.9-1.2-9.2 1-5.7 3.4-7.9 7-7.8v-.1c-3-1-4.5-3.6-3.6-9 .7-3.8 1.9-6.2 4-7.6 1.5-1.1 3.6-1.5 6.8-.9l9.7 1.6m-7.2 32.4c1.9.3 2.8.3 3.6-.3.9-.6 1.4-2 1.9-4.7.5-3.1.5-4.5-.1-5.4-.6-.8-1.4-1.2-3.3-1.5l-6.6-1.2c-1.9-.3-2.8-.3-3.6.3-.9.6-1.4 2-2 5.1-.5 2.7-.5 4.2.2 5.1.6.8 1.4 1.2 3.3 1.5l6.6 1.1zm3-16.9c1.7.3 2.5.2 3.2-.3.8-.5 1.2-1.7 1.7-4.5.4-2.4.4-3.7-.2-4.5-.5-.7-1.2-1.1-2.9-1.4l-6.8-1.2c-1.7-.3-2.5-.2-3.2.3-.8.5-1.3 1.8-1.7 4.2-.5 2.7-.4 4 .1 4.8.5.7 1.2 1 2.9 1.3l6.9 1.3zM619.1 597c-3.6 1.9-4.8 2.1-7 1.7l-6.5-1.1c-3.5-.6-5.4-1.4-6.6-3-1.5-2.1-1.6-5.1-.7-10s2.2-7.7 4.3-9.1c1.7-1.2 3.8-1.6 7.3-1l7.9 1.4c4.1.7 5.8 1.5 7.2 3.3 1.8 2.3 2.7 6.1.7 17.6-1.9 11-4.2 14.7-6.8 16.3-2.1 1.3-4 1.3-8.3.6l-8-1.4c-3.2-.6-5-1.4-6-2.9-1.4-1.9-1.8-4-1-8.9l6 1c-.3 2.8-.2 3.9.2 4.5.5.6 1.2 1 2.8 1.3l6.8 1.2c2.4.4 3.1.2 3.8-.2 1-.7 2.2-1.8 3.9-11.3m-4.3-3.2c1.5.3 3 .1 4.9-.4 1.2-7.7.7-10.2.1-11-.5-.6-.9-1.1-3.2-1.5l-6.3-1.1c-1.9-.3-2.8-.3-3.6.3-.9.6-1.5 2.4-2 5.2s-.6 4.8.1 5.7c.6.8 1.4 1.2 3.3 1.5l6.7 1.3zM656.9 582.6c4.1.7 5.8 1.4 7.2 3.2 1.8 2.3 2.8 6.3.8 17.8s-4.3 14.9-6.7 16.5c-2 1.2-3.7 1.2-7.9.5l-7.2-1.3c-4.1-.7-5.8-1.3-7.2-3.2-1.8-2.3-2.8-6.3-.8-17.8s4.3-14.9 6.7-16.5c1.9-1.2 3.7-1.3 7.8-.5l7.3 1.3m-8 4c-2.1-.4-2.8-.2-3.4.2-.8.5-2.1 2.2-4 12.7s-1.2 12.5-.6 13.3c.5.6 1 .9 3.1 1.3l7 1.2c2.1.4 2.8.2 3.4-.2.8-.5 2.1-2.3 4-12.7 1.8-10.5 1.2-12.5.6-13.3-.5-.6-1-1-3.1-1.3l-7-1.2zM734.7 596.2c4.1.7 5.8 1.4 7.2 3.2 1.8 2.3 2.8 6.3.8 17.8s-4.3 14.9-6.7 16.5c-2 1.2-3.7 1.2-7.9.5l-7.2-1.3c-4.1-.7-5.8-1.3-7.2-3.2-1.8-2.3-2.8-6.3-.8-17.8s4.3-14.9 6.7-16.5c1.9-1.2 3.7-1.3 7.8-.5l7.3 1.3m-8 3.9c-2.1-.4-2.8-.2-3.4.2-.8.5-2.1 2.2-3.9 12.7s-1.2 12.5-.6 13.3c.5.6 1 .9 3.1 1.3l7 1.2c2.1.4 2.8.2 3.4-.2.8-.5 2.1-2.3 3.9-12.7s1.2-12.5.6-13.3c-.5-.6-1-1-3.1-1.3l-7-1.2zM682.8 656.3c1.8.3 2.5.7 3.1 1.4.8 1 1.2 2.7.2 8.2s-1.9 7-3 7.7c-.8.5-1.6.6-3.4.3l-3.7-.6c-1.8-.3-2.5-.6-3.1-1.4-.8-1-1.1-2.7-.2-8.2s1.8-7 3-7.7c.8-.5 1.6-.6 3.4-.3l3.7.6m-3.9 1.1c-1.2-.2-1.6-.1-2 .2-.6.4-1.2 1.3-2.1 6.4s-.6 6.2-.2 6.8c.3.3.6.6 1.8.8l3.6.6c1.2.2 1.6.1 2-.1.6-.4 1.2-1.3 2.1-6.5.9-5.2.6-6.2.2-6.8-.3-.4-.6-.6-1.8-.8l-3.6-.6zM699.7 659.3c1.8.3 2.5.7 3.1 1.4.8 1 1.2 2.7.2 8.2s-1.9 7-3 7.7c-.8.5-1.6.6-3.4.3l-3.7-.7c-1.8-.3-2.5-.6-3.1-1.4-.8-1-1.2-2.7-.2-8.2s1.8-7 3-7.7c.8-.5 1.6-.6 3.4-.3l3.7.7m-3.9 1.1c-1.2-.2-1.6-.1-2 .2-.6.4-1.2 1.3-2.1 6.4s-.6 6.2-.2 6.8c.3.3.6.6 1.8.8l3.6.6c1.2.2 1.6.1 2-.1.6-.4 1.2-1.3 2.1-6.5s.6-6.2.2-6.8c-.3-.4-.6-.6-1.8-.8l-3.6-.6zM727.7 664.2c1.8.3 2.5.7 3.1 1.4.8 1 1.2 2.7.2 8.2s-1.9 7-3 7.7c-.8.5-1.6.6-3.4.3l-3.7-.6c-1.8-.3-2.5-.6-3.1-1.4-.8-1-1.2-2.7-.2-8.2s1.9-7 3-7.7c.8-.5 1.6-.6 3.4-.3l3.7.6m-3.9 1.1c-1.2-.2-1.6-.1-2 .2-.6.4-1.2 1.3-2.1 6.4-.9 5.2-.6 6.2-.2 6.8.3.3.6.6 1.8.8l3.6.6c1.2.2 1.6.1 2-.1.6-.4 1.2-1.3 2.1-6.5s.6-6.2.2-6.8c-.3-.4-.6-.6-1.8-.8l-3.6-.6zM744.6 667.1c1.8.3 2.5.7 3.1 1.4.8 1 1.2 2.7.2 8.2s-1.9 7-3 7.7c-.8.5-1.6.6-3.4.3l-3.7-.7c-1.8-.3-2.5-.6-3.1-1.4-.8-1-1.1-2.7-.2-8.2s1.9-7 3-7.7c.8-.5 1.6-.6 3.4-.3l3.7.7m-3.9 1.1c-1.2-.2-1.6-.1-2 .2-.6.4-1.2 1.3-2.1 6.4s-.6 6.2-.2 6.8c.3.3.6.6 1.8.8l3.6.6c1.2.2 1.6.1 2-.1.6-.4 1.2-1.3 2.1-6.5.9-5.2.6-6.2.2-6.8-.3-.4-.6-.6-1.8-.8l-3.6-.6zM701.8 681.9l14.1-20.1 1.8.4-14 20-1.9-.3M577.7 646.6l-7.1-1.2 1.9-10.8 7.2 1.2-.2 1-5.9-1-.6 3.6 5.1.9-.2 1-5.1-.9-.7 4 5.9 1-.3 1.2zM584.2 643.1l-3.9 4-1.3-.2 4.7-4.8-2.7-5.9 1.4.2 2.2 4.8h.1l3.7-3.8 1.3.2-4.5 4.6 2.8 6.1-1.3-.2-2.5-5zM597.2 645.2c-.4.3-.9.3-1.7.1l-3.9-.7-.7 4.3-1.2-.2 1.9-10.8 5.1.9c.8.1 1.3.3 1.6.7.4.5.6 1.2.3 3s-.9 2.4-1.4 2.7zm-1.8-1c.6.1.9.1 1.1 0 .2-.2.5-.5.8-1.9s.1-1.8-.1-2c-.2-.2-.4-.3-1-.4l-3.6-.6-.8 4.4 3.6.5zM599.8 648.8l-.3 1.6-1.5-.3.3-1.6 1.5.3zM574.6 650.9c1.2.2 1.7.5 2.2 1.1.5.7.7 2 .2 4.9s-1.1 4-1.9 4.5c-.6.4-1.2.5-2.4.3l-4.9-.8 1.9-10.8 4.9.8zm1.2 1.6c-.3-.4-.6-.5-1.3-.6l-3.6-.6-1.5 8.7 3.6.6c.7.1 1.1.1 1.4-.1.5-.3 1-1.1 1.4-3.8.5-2.8.3-3.7 0-4.2zM584.9 660.3l-4.5-.8-1.6 3.1-1.2-.2 5.3-9.8c.2-.3.2-.4.7-.3l1 .2c.4.1.5.2.5.5l1.7 11-1.3-.2-.6-3.5zm-4-1.7 3.8.7-.8-5.7-.3-.1-2.7 5.1zM593.1 655.2l-1.7 9.7-1.2-.2 1.7-9.7-3.5-.6.2-1 8.2 1.4-.2 1-3.5-.6zM603.8 667l-7.1-1.2 1.9-10.8 7.1 1.2-.2 1-5.9-1-.6 3.6 5.1.9-.2 1-5.1-.9-.7 4 5.9 1-.2 1.2zM570.8 686.1c-.4.2-.8.3-1.7.2l-3.7-.6c-.8-.1-1.2-.3-1.5-.7-.3-.5-.4-1-.1-2.9l1.2.2c-.2 1.5-.2 1.8 0 2 .1.2.3.3.8.4l3.3.6c.5.1.7.1.9-.1.2-.2.4-.6.6-1.6s.2-1.3 0-1.5c-.1-.2-.3-.3-.9-.4l-3.3-.9c-.8-.2-1.2-.5-1.5-.8-.3-.5-.3-1-.1-2.3s.5-2 1.1-2.3c.3-.3.8-.3 1.6-.2l3.3.6c.8.1 1.2.3 1.5.7.4.5.4 1 .1 2.8l-1.2-.2c.2-1.4.2-1.7.1-1.9-.1-.2-.3-.3-.8-.4l-3-.5c-.5-.1-.7-.1-.9.1-.2.2-.4.6-.6 1.6-.2 1-.2 1.2 0 1.5.1.2.3.3.9.4l3.3.9c.8.2 1.2.5 1.5.8.3.5.4 1 .1 2.4s-.5 1.7-1 2.1zM581 688.3l-7.1-1.2 1.9-10.8 7.2 1.2-.2 1-5.9-1-.6 3.6 5.1.9-.2 1-5.1-.9-.7 4 5.9 1-.3 1.2zM590.4 689.5c-.4.2-.8.3-1.8.1l-3.2-.6c-1-.2-1.3-.4-1.6-.7-.5-.6-.7-1.5 0-5.1.6-3.6 1.1-4.4 1.8-4.8.4-.2.8-.3 1.8-.1l3.2.6c1 .2 1.3.4 1.6.7.4.6.6 1.2.3 3.1l-1.2-.2c.2-1.5.1-1.9-.1-2.2-.1-.2-.3-.3-.9-.4l-2.9-.5c-.7-.1-.8 0-1 .1-.3.2-.6.7-1.2 4s-.4 3.9-.2 4.2c.1.2.3.3.9.4l2.9.5c.6.1.8 0 1-.1.2-.2.5-.5.8-2.2l1.2.2c-.5 2.2-.8 2.7-1.4 3zM602.5 687.6c-.5 2.6-.8 3.2-1.4 3.7-.5.3-1.1.4-2.3.2l-2.2-.4c-1.2-.2-1.8-.5-2.1-.9-.4-.6-.6-1.3-.1-4l1.1-6.4 1.2.2-1.2 6.6c-.4 2.1-.3 2.6 0 2.9.2.2.4.4 1.5.5l1.9.3c1 .2 1.3.1 1.5 0 .3-.2.6-.6.9-2.7l1.2-6.6 1.2.2-1.2 6.4zM611.5 689.2c-.2-.3-.5-.4-1.2-.5l-3.6-.6-.8 4.7-1.2-.2 1.9-10.8 5.4 1c.8.1 1.2.3 1.5.7.3.5.5 1.1.2 2.7-.3 1.9-.9 2.3-2.1 2.3 1 .4 1.3.8 1.1 2.5-.2 1.3-.3 2.2-.3 2.9l-1.2-.2c0-.7.1-1.8.3-2.9.2-1.1.1-1.4 0-1.6zm-.7-1.5c.5.1.8 0 1-.1.2-.2.5-.5.7-1.7s0-1.6-.1-1.8-.4-.3-.9-.4l-3.9-.7-.7 4 3.9.7zM615.2 694.3l1.9-10.8 1.2.2-1.9 10.8-1.2-.2zM624.7 686l-1.7 9.7-1.2-.2 1.7-9.7-3.5-.6.2-1 8.2 1.4-.2 1-3.5-.6zM632.7 693l-.7 4.3-1.2-.2.7-4.3-2.6-7.2 1.3.2 2.1 5.8h.1l3.9-4.7 1.3.2-4.9 5.9zM568.2 701.5c-.4.2-.8.3-1.8.1l-3.2-.6c-1-.2-1.3-.4-1.6-.7-.5-.6-.7-1.5 0-5.1s1.1-4.4 1.8-4.8c.4-.2.8-.3 1.8-.1l3.2.6c1 .2 1.3.4 1.6.7.4.6.6 1.2.3 3.1l-1.2-.2c.2-1.5.1-1.9-.1-2.2-.1-.2-.3-.3-.9-.4l-2.9-.5c-.7-.1-.8 0-1 .1-.3.2-.6.7-1.2 4s-.4 3.9-.2 4.2c.1.2.3.3.9.4l2.9.5c.6.1.8 0 1-.1.2-.2.5-.5.8-2.2l1.2.2c-.5 2.1-.8 2.6-1.4 3zM578.8 692.7c1 .2 1.3.4 1.6.7.5.6.7 1.5 0 5.1s-1.1 4.4-1.8 4.8c-.4.2-.8.3-1.8.1l-3.3-.6c-1-.2-1.3-.4-1.6-.7-.5-.6-.7-1.5 0-5.1s1.1-4.4 1.8-4.8c.4-.2.8-.3 1.8-.1l3.3.6zm-5.8 8.8c.1.2.3.3.9.4l3.1.5c.6.1.8 0 1-.1.3-.2.6-.7 1.2-4s.4-3.9.2-4.2c-.1-.2-.3-.3-.9-.4l-3.1-.5c-.7-.1-.8 0-1 .1-.3.2-.6.7-1.2 4s-.4 3.9-.2 4.2zM588.9 694.5c1.2.2 1.7.5 2.2 1.1.5.7.7 2 .2 4.9s-1.1 4-1.9 4.5c-.6.4-1.2.5-2.4.3l-4.8-.8 1.9-10.8 4.8.8zm1.1 1.6c-.3-.4-.6-.5-1.3-.6l-3.6-.6-1.5 8.7 3.6.6c.7.1 1.1.1 1.4-.1.5-.3 1-1.1 1.4-3.8s.3-3.7 0-4.2zM600 707.5l-7.1-1.2 1.9-10.8 7.1 1.2-.2 1-5.9-1-.6 3.6 5.1.9-.2 1-5.1-.9-.7 4 5.9 1-.2 1.2zM851.4 490.1l-4.5-.8-1.6 3.1-1.2-.2 5.3-9.8c.2-.3.2-.4.7-.3l1 .2c.4.1.5.2.5.5l1.7 11-1.3-.2-.6-3.5zm-4-1.7 3.8.7-.8-5.7-.3-.1-2.7 5.1zM865 491.4c-.5 2.6-.8 3.2-1.4 3.7-.5.3-1.1.4-2.3.2l-2.2-.4c-1.2-.2-1.8-.5-2.1-.9-.5-.6-.6-1.4-.1-4l1.1-6.4 1.2.2-1.2 6.6c-.4 2.1-.3 2.6 0 2.9.2.2.4.4 1.5.6l1.9.3c1 .2 1.3.1 1.5 0 .3-.2.6-.6.9-2.7l1.2-6.6 1.2.2-1.2 6.3zM873.6 487.4l-1.7 9.7-1.2-.2 1.7-9.7-3.5-.6.2-1 8.2 1.4-.2 1-3.5-.6zM886.8 499.7l-1.2-.2.9-5-6-1-.9 5-1.2-.2 1.9-10.8 1.2.2-.8 4.7 6 1 .8-4.7 1.2.2-1.9 10.8zM898.3 490.6c1 .2 1.3.4 1.6.7.5.6.7 1.5 0 5.1s-1.1 4.4-1.8 4.8c-.4.2-.8.3-1.8.1l-3.3-.6c-1-.2-1.3-.4-1.6-.7-.5-.6-.7-1.5 0-5.1.6-3.6 1.1-4.4 1.8-4.8.4-.2.8-.3 1.8-.1l3.3.6zm-5.8 8.8c.1.2.3.3.9.4l3.1.5c.6.1.8 0 1-.1.3-.2.6-.7 1.2-4s.4-3.9.2-4.2c-.1-.2-.3-.3-.9-.4l-3.1-.5c-.7-.1-.8 0-1 .1-.3.2-.6.7-1.2 4s-.4 3.9-.2 4.2zM909.6 499.2c-.2-.2-.5-.4-1.2-.5l-3.6-.6-.8 4.7-1.2-.2 1.9-10.8 5.4 1c.8.1 1.2.3 1.5.7.3.5.5 1.1.2 2.6-.3 1.9-.9 2.3-2.1 2.4 1 .4 1.3.8 1.1 2.5-.2 1.3-.3 2.2-.3 2.9l-1.2-.2c0-.7.1-1.8.3-2.9.2-1.1.2-1.4 0-1.6zm-.7-1.5c.6.1.8 0 1-.1s.5-.5.7-1.7 0-1.6-.1-1.9c-.1-.2-.4-.3-.9-.4l-3.9-.7-.7 4 3.9.8zM914.5 504.5l1.9-10.8 1.2.2-1.9 10.8-1.2-.2zM926.9 506.2c-.4.2-.8.4-1.7.2l-3.7-.6c-.8-.1-1.2-.3-1.5-.7-.3-.5-.4-.9-.1-2.9l1.2.2c-.2 1.5-.2 1.8 0 2 .1.2.3.3.8.4l3.3.6c.5.1.7.1.9-.1s.4-.6.6-1.6.2-1.3 0-1.5c-.1-.2-.3-.3-.9-.4l-3.3-.9c-.8-.2-1.2-.5-1.5-.8-.3-.5-.3-1-.1-2.4s.5-2 1.1-2.3c.3-.3.8-.4 1.6-.2l3.3.6c.8.1 1.2.3 1.5.7.4.5.4 1 .1 2.8l-1.2-.2c.2-1.4.2-1.7.1-1.9-.1-.2-.3-.3-.8-.4l-3-.5c-.5-.1-.7-.1-.9.1s-.4.6-.6 1.6-.2 1.2 0 1.5c.1.2.3.3.9.4l3.3.9c.8.2 1.2.5 1.5.8.3.5.4 1 .1 2.4s-.4 1.9-1 2.2zM938.3 508.7l-7.1-1.2 1.9-10.8 7.2 1.2-.2 1-5.9-1-.6 3.6 5.1.9-.2 1-5.1-.9-.7 4 5.9 1-.3 1.2zM948.5 499.4c1.2.2 1.7.5 2.2 1.1.5.8.7 2 .2 4.9s-1.1 4-1.9 4.5c-.6.4-1.2.5-2.4.3l-4.9-.9 1.9-10.8 4.9.9zm1.1 1.6c-.3-.4-.6-.5-1.3-.6l-3.6-.6-1.5 8.7 3.6.6c.7.1 1.1.1 1.4-.1.5-.3 1-1.1 1.4-3.8s.3-3.7 0-4.2zM965.4 512.9c-.4.2-.8.3-1.7.2l-3.7-.6c-.8-.1-1.2-.3-1.5-.7-.3-.5-.4-.9-.1-2.9l1.2.2c-.2 1.5-.2 1.8 0 2 .1.2.3.3.8.4l3.3.6c.5.1.7.1.9-.1.2-.2.4-.6.6-1.6s.2-1.3 0-1.5c-.1-.2-.3-.3-.9-.4l-3.3-.9c-.8-.2-1.2-.5-1.5-.8-.3-.5-.3-1-.1-2.4s.5-2 1.1-2.3c.3-.3.8-.4 1.6-.2l3.3.6c.8.1 1.2.3 1.5.7.4.5.4 1 .1 2.8l-1.2-.2c.2-1.4.2-1.7.1-1.9-.1-.2-.3-.3-.8-.4l-3-.5c-.5-.1-.7-.1-.9.1s-.4.6-.6 1.6-.2 1.2 0 1.5c.1.2.3.3.9.4l3.3.9c.8.2 1.2.5 1.5.8.3.5.4 1 .1 2.4-.3 1.4-.5 1.8-1 2.2zM969.7 514.2l1.9-10.8 1.2.2-1.9 10.8-1.2-.2zM982.4 505.3c1 .2 1.3.4 1.6.7.5.6.5 1.3.3 3l-1.2-.2c.2-1.3.1-1.8-.1-2.1-.1-.2-.3-.3-.9-.4l-3-.5c-.7-.1-.8-.1-1 .1-.3.2-.6.7-1.2 4s-.4 3.9-.2 4.2c.1.2.3.3.9.4l3 .5c.6.1.8 0 1-.1.3-.2.6-.6.9-2.7l.1-.3-2.9-.5.2-1 4.1.7-.2.9c-.5 2.9-.9 3.6-1.6 4-.4.2-.8.3-1.8.1l-3.2-.6c-1-.2-1.3-.4-1.6-.7-.5-.6-.7-1.5 0-5.1s1.1-4.4 1.7-4.8c.4-.2.8-.3 1.8-.1l3.3.5zM995 518.6l-1.2-.2c-.4-.1-.5-.2-.6-.5l-3.4-9.6h-.2l-1.6 9.2-1.2-.2 1.9-10.8 1.3.2c.4.1.5.2.6.5l3.3 9.4h.2l1.6-9 1.2.2-1.9 10.8zM1005.4 517l-4.5-.8-1.6 3.1-1.2-.2 5.3-9.8c.2-.3.2-.4.7-.3l1 .2c.4.1.5.2.5.5l1.7 11-1.3-.2-.6-3.5zm-4-1.8 3.8.7-.8-5.7-.3-.1-2.7 5.1zM1014.8 512l-1.7 9.7-1.2-.2 1.7-9.7-3.5-.6.2-1 8.2 1.4-.2 1.1-3.5-.7zM1028.5 519.9c-.4 2.6-.8 3.2-1.4 3.7-.5.3-1.1.4-2.3.2l-2.2-.4c-1.2-.2-1.8-.5-2.1-.9-.5-.6-.6-1.3-.1-4l1.1-6.4 1.2.2-1.2 6.6c-.4 2.1-.3 2.6 0 2.9.2.2.4.4 1.5.6l1.9.3c1 .2 1.3.1 1.5 0 .3-.2.6-.6.9-2.7l1.2-6.6 1.2.2-1.2 6.3zM1038.6 521.7c-.2-.2-.5-.4-1.2-.5l-3.6-.6-.8 4.7-1.2-.2 1.9-10.8 5.4 1c.8.1 1.2.3 1.5.7.3.5.5 1.1.2 2.7-.3 1.9-.9 2.3-2.1 2.3 1 .4 1.3.8 1.1 2.5-.2 1.3-.3 2.2-.3 2.9l-1.2-.2c0-.7.1-1.8.3-2.9.2-1.1.1-1.4 0-1.6zm-.7-1.5c.6.1.8 0 1-.1.2-.2.5-.5.7-1.7s.1-1.6-.1-1.8c-.1-.2-.4-.3-.9-.4l-3.9-.7-.7 4 3.9.7zM1050.5 528.2l-7.1-1.2 1.9-10.8 7.1 1.2-.2 1-5.9-1-.6 3.6 5.1.9-.2 1-5.1-.9-.7 4 5.9 1-.2 1.2z" class="st9"/><path d="M979.8 292h77.4v331.7h-77.4z" style="fill:#999a98" transform="rotate(-80.102 1018.454 457.847)"/><g class="st13"><path d="M669.1 180.8c.1-.8.1-1.4-.1-1.6-.2-.2-.6-.4-1.1-.5l-3.6-.6-.8 4.7-1.2-.2 1.9-10.8 5.4.9c.7.1 1.2.4 1.5.7.2.3.3.6.4 1 0 .4 0 .9-.1 1.7-.2.9-.4 1.5-.7 1.8-.3.3-.8.5-1.4.5.5.2.9.5 1 .8.2.3.2.9.1 1.7-.2 1.4-.3 2.4-.3 2.9l-1.2-.2c0-.6.1-1.6.2-2.8zm-4.6-3.8 3.9.7c.5.1.8 0 1-.1.3-.2.6-.8.7-1.7.2-.9.1-1.5-.1-1.9-.1-.2-.4-.3-.9-.4l-3.9-.7-.7 4.1zM679.5 181.7l-5.5-1c-.1.9-.2 1.5-.2 1.8 0 .3 0 .6.1.7.1.2.4.3.9.4l2 .4c.4.1.8.1.9-.1.2-.1.4-.6.5-1.2l1.1.2c-.1.6-.2 1.1-.4 1.3-.1.3-.3.5-.6.7-.3.2-.9.3-1.6.2l-2.4-.4c-.8-.1-1.3-.4-1.6-.8-.2-.3-.3-.7-.4-1.2 0-.5.1-1.4.3-2.6.2-1.2.4-2 .6-2.5.2-.5.4-.8.8-1 .4-.3.9-.3 1.8-.2l2.1.4c.8.1 1.3.4 1.6.7.2.3.3.7.4 1.2 0 .5-.1 1.3-.3 2.5v.3c.1.1.1.2-.1.2zm-4.5-4.1c-.1.1-.3.3-.4.6-.1.3-.2.8-.4 1.7l4.5.8c.1-.8.2-1.4.2-1.7s-.1-.6-.2-.7c-.1-.2-.4-.3-.9-.4l-1.8-.3c-.5-.2-.8-.2-1 0zM682.4 180.1c.2-1 .5-1.6.9-1.9.3-.2.9-.3 1.6-.2l2.2.4c.8.1 1.2.4 1.5.7.1.2.2.4.2.7 0 .3 0 .7-.1 1.3l-1 5.9-1.1-.2.2-1c-.6.3-1.1.5-1.4.6-.3.1-.6.1-1.1 0l-1.2-.2c-.7-.1-1.2-.4-1.5-.7-.3-.4-.3-1-.2-1.9.2-.9.4-1.5.8-1.8.2-.2.5-.3.8-.3.3 0 .9 0 1.6.1.9.2 1.8.4 2.6.7l.2-1.4c.1-.7.1-1.1 0-1.3-.1-.2-.4-.3-.8-.4l-1.6-.2c-.5-.1-.8-.1-1 .1-.2.2-.4.6-.5 1.2l-1.1-.2zm2.2 5.3c.4.1.7.1 1 0 .3-.1.7-.2 1.2-.4l.4-2.1-2.7-.5c-.5-.1-.8-.1-1-.1-.2 0-.3.1-.5.1-.2.2-.4.5-.5 1.1-.1.6-.1 1.1 0 1.2.1.2.4.3.9.4l1.2.3zM695.9 185.5l1.1.2c-.1.7-.3 1.2-.4 1.5-.1.3-.3.5-.6.7-.3.2-.8.3-1.5.2l-2.2-.4c-.8-.1-1.3-.4-1.6-.8-.2-.3-.3-.7-.4-1.2s.1-1.4.3-2.6c.2-1.2.4-2 .6-2.5.2-.5.4-.8.8-1 .4-.3.9-.3 1.8-.2l2.2.4c.7.1 1.2.3 1.4.7.2.2.3.5.3.9 0 .3 0 .8-.1 1.5l-1.1-.2c.1-.8.1-1.3-.1-1.5-.1-.2-.4-.3-.8-.4l-1.8-.3c-.5-.1-.9-.1-1 .1-.2.1-.3.3-.4.7-.1.4-.3 1.1-.5 2.1s-.3 1.8-.3 2.1c0 .4 0 .6.2.8.1.2.5.3 1 .4l1.8.3c.4.1.8.1.9-.1 0 0 .2-.5.4-1.4zM699.8 189.1l-1.1-.2 1.9-11.1 1.1.2-.7 3.9c.6-.4 1.1-.6 1.4-.7.3-.1.7-.1 1.1 0l1.2.2c.7.1 1.1.3 1.4.7.2.3.3.9.1 1.7l-1.1 6.2-1.1-.2 1.1-6.1c.1-.4 0-.8-.1-.9-.1-.2-.4-.3-.9-.4l-1.1-.2c-.3-.1-.7-.1-1 0s-.7.2-1.2.4l-1 6.5zM721.5 181.8l-1.1 6.4c-.2 1.2-.4 2.1-.6 2.6-.2.5-.5.9-.8 1.1-.4.3-1.2.4-2.3.2l-2.2-.4c-1.1-.2-1.8-.5-2.1-.9-.2-.3-.4-.8-.4-1.3s.1-1.4.3-2.7l1.1-6.4 1.2.2-1.2 6.6c-.2 1-.3 1.6-.2 2 0 .4.1.7.2.9.2.2.6.4 1.5.6l1.9.3c.8.1 1.3.1 1.5 0 .2-.1.3-.4.5-.7.1-.4.3-1 .5-2l1.2-6.6 1 .1zM729 191.8c-.2 1-.4 1.6-.8 1.9-.3.2-.7.3-1.3.2l-3-.5c-.6-.1-1.1-.3-1.2-.6-.2-.2-.2-.5-.2-.7 0-.3 0-.8.1-1.5l1 .2c-.1.8-.1 1.2 0 1.4.1.1.3.2.7.3l2.6.4c.3.1.6 0 .7-.1.2-.1.3-.5.4-1.1.1-.6.1-.9 0-1.1-.1-.2-.3-.3-.7-.4l-2.6-.7c-.7-.2-1.1-.4-1.2-.6-.1-.2-.2-.4-.2-.7 0-.3 0-.7.1-1.2.2-.9.4-1.5.8-1.8.3-.2.7-.3 1.3-.2l2.8.5c.6.1 1 .3 1.2.6.1.2.2.5.2.7 0 .3 0 .8-.1 1.4l-1-.2c.1-.7.1-1.2 0-1.3-.1-.1-.3-.2-.7-.3l-2.4-.4c-.3-.1-.5 0-.7.1-.2.1-.3.5-.4 1s-.1.9 0 1c.1.1.3.3.8.4l2.6.7c.6.2 1.1.4 1.2.6.1.4.1 1 0 2zM730.8 192.8l1.5.3-.3 1.6-1.5-.3.3-1.6zm1.2-6.6 1.5.3-.3 1.6-1.5-.3.3-1.6zM743.6 193.8l1.1.2c-.1.7-.3 1.2-.4 1.5-.1.3-.3.5-.6.7-.3.2-.8.3-1.5.2l-2.2-.4c-.8-.1-1.3-.4-1.6-.8-.2-.3-.3-.7-.4-1.2 0-.5.1-1.4.3-2.6.2-1.2.4-2 .6-2.5s.4-.8.8-1c.4-.3.9-.3 1.8-.2l2.2.4c.7.1 1.2.3 1.4.7.2.2.3.5.3.9 0 .3 0 .8-.1 1.5l-1.1-.2c.1-.8.1-1.3-.1-1.5-.1-.2-.4-.3-.8-.4l-1.8-.3c-.5-.1-.9-.1-1 .1-.2.1-.3.3-.4.7-.1.4-.3 1.1-.5 2.1s-.3 1.8-.3 2.1c0 .4 0 .6.2.8.1.2.5.3 1 .4l1.8.3c.4.1.8.1.9-.1 0 0 .2-.5.4-1.4zM747.3 191.4c.2-1 .5-1.6.9-1.9.3-.2.9-.3 1.6-.2l2.2.4c.8.1 1.2.4 1.5.7.1.2.2.4.2.7 0 .3 0 .7-.1 1.3l-1 5.9-1.1-.2.2-1c-.6.3-1.1.5-1.4.6-.3.1-.6.1-1.1 0l-1.2-.2c-.7-.1-1.2-.4-1.5-.7-.3-.4-.3-1-.2-1.9.2-.9.4-1.5.8-1.8.2-.2.5-.3.9-.3s.9 0 1.6.1c.9.2 1.8.4 2.6.7l.2-1.4c.1-.7.1-1.1 0-1.3-.1-.2-.4-.3-.8-.4l-1.7-.3c-.5-.1-.8-.1-1 .1-.2.2-.4.6-.5 1.2l-1.1-.1zm2.2 5.4c.4.1.7.1 1 0 .3-.1.7-.2 1.2-.4l.4-2.1-2.7-.5c-.5-.1-.8-.1-1-.1-.2 0-.3.1-.5.1-.2.2-.4.5-.5 1.1-.1.6-.1 1.1 0 1.2.1.2.4.3.9.4l1.2.3z" class="st9"/></g><g class="st13"><path d="m756.1 199.4-1.1-.2 1.4-8.2 1.1.2-.2 1.3c.6-.5 1.1-.8 1.4-.9.3-.1.6-.2.9-.1l1 .2-.2 1.2-1.1-.2c-.3-.1-.7-.1-.9 0-.3 0-.7.2-1.1.4l-1.2 6.3z" class="st9"/></g><g class="st13"><path d="m767.7 201.5-1.1-.2.2-1.1c-.6.4-1.1.6-1.4.7-.3.1-.7.1-1.1 0l-1-.2c-.8-.1-1.4-.4-1.7-.8-.2-.3-.3-.7-.3-1.2s.1-1.3.3-2.6c.2-1.2.4-2 .6-2.5.2-.5.4-.8.7-1 .4-.3 1-.3 1.8-.2l1 .2c.4.1.7.2 1 .4.3.2.6.6 1.1 1.1l.7-3.9 1.1.2-1.9 11.1zm-3-1.6c.3.1.7.1 1 0 .3-.1.7-.2 1.2-.4l.8-4.7c-.4-.4-.7-.6-1-.8-.3-.2-.6-.3-.9-.3l-1.1-.2c-.5-.1-.9-.1-1.2.1-.2.1-.3.4-.4.7-.1.4-.3 1-.4 2-.2 1-.3 1.7-.3 2.1 0 .4 0 .7.2.8.2.2.5.4 1.1.5l1 .2zM776.9 200.7c-.2 1-.5 1.6-.8 1.9-.3.2-.7.3-1.3.2l-3-.5c-.6-.1-1.1-.3-1.2-.6-.2-.2-.2-.5-.2-.7 0-.3 0-.8.1-1.5l1 .2c-.1.8-.1 1.2 0 1.4.1.1.3.2.7.3l2.6.4c.3.1.6 0 .7-.1.2-.1.3-.5.4-1.1.1-.6.1-.9 0-1.1-.1-.2-.3-.3-.7-.4l-2.6-.7c-.7-.2-1.1-.4-1.2-.6-.1-.2-.2-.4-.2-.7 0-.3 0-.7.1-1.2.2-.9.4-1.5.8-1.8.3-.2.7-.3 1.3-.2l2.8.5c.6.1 1 .3 1.2.6.1.2.2.5.2.7 0 .3 0 .8-.1 1.4l-1-.2c.1-.7.1-1.2 0-1.3-.1-.1-.3-.2-.7-.3l-2.4-.4c-.3-.1-.5 0-.7.1-.2.1-.3.5-.4 1s-.1.9 0 1c.1.1.3.3.8.4l2.6.7c.6.2 1.1.4 1.2.6.2.4.2 1 0 2z" class="st9"/></g><g class="st13"><path d="M789.4 203.8c.5.1.8 0 1.1-.1.2-.2.4-.5.6-.9.2-.5.3-1.2.5-2.2.4-2.5.4-4.2-.1-4.9-.2-.3-.4-.5-.7-.7-.3-.2-.8-.3-1.4-.4l-4-.7c-.7-.1-1.2-.2-1.6-.1-.3.1-.7.2-1 .4-.4.3-.7.8-1 1.5-.3.8-.6 2-.9 3.7s-.4 2.9-.4 3.8c0 .8.2 1.4.4 1.8.2.3.5.5.8.7.3.2.8.3 1.5.4l6.3 1.1-.1.4-6.3-1.1c-.8-.1-1.3-.3-1.7-.5-.4-.2-.7-.5-.9-.8-.3-.4-.4-1-.5-1.9 0-.9.1-2.2.4-4 .5-3.1 1.2-4.9 2.1-5.5.3-.2.7-.4 1.1-.5.4-.1 1 0 1.8.1l4.1.7c.7.1 1.3.3 1.6.5s.6.5.9.8c.5.8.6 2.5.1 5.2-.3 1.9-.8 3.1-1.3 3.4-.4.3-.8.3-1.3.2l-.4-.1c-.7-.1-1.2-.5-1.5-1.2-.5.3-.9.5-1.1.6-.3.1-.5.1-.9 0l-.6-.1c-.7-.1-1.2-.4-1.4-.7-.2-.2-.3-.6-.3-1s0-1.1.2-2c.2-.9.3-1.6.5-2 .2-.4.4-.7.6-.8.3-.2.8-.3 1.5-.2l.6.1c.3.1.6.2.8.3s.5.5.9.9l.4-.9.7.1-.4 1.7-.6 3.4c-.1.4 0 .7.1.9 0 .4.3.5.8.6zm-3.7-1c.5.1 1 0 1.7-.3l.7-3.8c-.5-.5-1-.8-1.4-.9l-.7-.1c-.4-.1-.7 0-.9.1-.2.2-.5.9-.7 2.2-.2 1.3-.3 2.1-.1 2.3.1.2.4.3.8.4l.6.1z" class="st9"/></g><g class="st13"><path d="m795.9 206.4-1.2-.2 1.3-7.2-1.4-.2.2-1 1.4.2.1-.6c.2-.9.4-1.5.8-1.7.3-.2.8-.3 1.4-.2l1.3.2-.2 1-1-.2c-.3 0-.5 0-.6.1-.2.1-.3.5-.4 1l-.1.6 1.9.3-.2 1-1.8-.3-1.5 7.2zm6.2-7.4-1.4 8.2-1.1-.2 1.4-8.2 1.1.2zm.7-3-.3 1.5-1.4-.2.3-1.5 1.4.2zM803.3 206l1.5.3-.3 1.6-1.5-.3.3-1.6zM812.6 206.4l1.1.2c-.1.7-.3 1.2-.4 1.5s-.3.5-.6.7c-.3.2-.8.3-1.5.2l-2.2-.4c-.8-.1-1.3-.4-1.6-.8-.2-.3-.3-.7-.4-1.2 0-.5.1-1.4.3-2.6.2-1.2.4-2 .6-2.5.2-.5.4-.8.8-1 .4-.3.9-.3 1.8-.2l2.2.4c.7.1 1.2.3 1.4.7.2.2.3.5.3.9 0 .3 0 .8-.1 1.5l-1.1-.2c.1-.8.1-1.3-.1-1.5-.1-.2-.4-.3-.8-.4l-1.8-.3c-.5-.1-.9-.1-1 .1-.2.1-.3.3-.4.7-.1.4-.3 1.1-.5 2.1s-.3 1.8-.3 2.1c0 .4 0 .6.2.8.1.2.5.3 1 .4l1.8.3c.4.1.8.1.9-.1 0 0 .2-.5.4-1.4zM816.3 204c.2-1 .5-1.6.9-1.9.3-.2.9-.3 1.6-.2l2.2.4c.8.1 1.2.4 1.5.7.1.2.2.4.2.7 0 .3 0 .7-.1 1.3l-1 5.9-1.1-.2.2-1c-.6.3-1.1.5-1.4.6-.3.1-.6.1-1.1 0l-1.2-.2c-.7-.1-1.2-.4-1.5-.7-.3-.4-.3-1-.2-1.9.2-.9.4-1.5.8-1.8.2-.2.5-.3.8-.3s.9 0 1.6.1c.9.2 1.8.4 2.6.7l.2-1.4c.1-.7.1-1.1 0-1.3-.1-.2-.4-.3-.8-.4l-1.7-.3c-.5-.1-.8-.1-1 .1-.2.2-.4.6-.5 1.2l-1-.1zm2.3 5.4c.4.1.7.1 1 0s.7-.2 1.2-.4l.4-2.1-2.7-.5c-.5-.1-.8-.1-1-.1-.2 0-.3.1-.5.1-.2.2-.4.5-.5 1.1-.1.6-.1 1.1 0 1.2.1.2.4.3.9.4l1.2.3z" class="st9"/></g><g class="st13"><path d="m826.5 211.7-1.1-.2 1.4-8.2 1.1.2-.2 1.3c.6-.5 1.1-.8 1.4-.9.3-.1.6-.2.9-.1l1 .2-.2 1.2-1.1-.2c-.3-.1-.7-.1-.9 0-.3 0-.7.2-1.1.4l-1.2 6.3z" class="st9"/></g><g class="st13"><path d="m838.6 210-5.5-1c-.1.9-.2 1.5-.2 1.8 0 .3 0 .6.1.7.1.2.4.3.9.4l2 .4c.4.1.8.1.9-.1.2-.1.4-.6.5-1.2l1.1.2c-.1.6-.2 1.1-.4 1.3-.1.3-.3.5-.6.7-.3.2-.9.3-1.6.2l-2.4-.4c-.8-.1-1.3-.4-1.6-.8-.2-.3-.3-.7-.4-1.2 0-.5.1-1.4.3-2.6.2-1.2.4-2 .6-2.5.2-.5.4-.8.8-1 .4-.3.9-.3 1.8-.2l2.1.4c.8.1 1.3.4 1.6.7.2.3.3.7.4 1.2 0 .5-.1 1.3-.3 2.5v.3c.1.1 0 .2-.1.2zm-4.6-4.2c-.1.1-.3.3-.4.6-.1.3-.2.8-.4 1.7l4.5.8c.1-.8.2-1.4.2-1.7 0-.3-.1-.6-.2-.7-.1-.2-.4-.3-.9-.4l-1.8-.3c-.4-.1-.8-.1-1 0z" class="st9"/></g><g class="st13"><path d="m913.1 214-2.1 10.7-1.2-.2c-.2 0-.3-.1-.4-.2s-.1-.2-.2-.4l-3.2-9.7h-.2l-1.8 9.2-1.2-.2 2.1-10.7 1.3.3c.2 0 .3.1.4.2.1.1.1.2.2.4l3.2 9.5h.2l1.7-8.9h1.2zM915.9 225.7c-.8-.2-1.3-.4-1.6-.8-.2-.3-.3-.7-.3-1.2s.1-1.4.3-2.5c.2-1.2.4-2 .6-2.5.2-.5.5-.8.8-1 .4-.2 1-.3 1.8-.1l2.1.4c.8.2 1.3.4 1.6.8.2.3.3.7.3 1.2s-.1 1.3-.3 2.5c-.2 1.2-.4 2-.6 2.5-.2.5-.5.8-.8 1-.4.2-.9.3-1.7.1l-2.2-.4zm-.5-4.3c-.2 1-.3 1.8-.3 2.1 0 .4 0 .6.1.8.1.2.5.3 1 .4l1.9.4c.5.1.8.1 1 0 .2-.1.3-.3.4-.7.1-.4.3-1.1.5-2.1s.3-1.7.3-2.1c0-.4 0-.7-.1-.8-.1-.2-.4-.3-.9-.4l-1.9-.4c-.5-.1-.9-.1-1 0-.2.1-.3.3-.4.7-.2.3-.4 1-.6 2.1zM926.8 226.8l-.1.7h-.8c-.4 0-.8 0-1.1-.1-.6-.1-.9-.3-1.1-.6-.2-.3-.2-.7-.1-1.4l1.1-5.6-1.4-.3.2-1 1.4.3.4-2.1 1.2.2-.4 2.1 2.3.4-.2 1-2.3-.4-1 5.3c-.1.4-.1.6 0 .8.1.1.3.2.7.3l1.2.4z" class="st9"/></g><g class="st13"><path d="m941 222.1-4.2 7.3c-.1.1-.2.2-.2.3h-.3l-.7-.1c-.2 0-.3-.1-.3-.1s-.1-.2-.1-.3l-1.2-8.4 1.2.2.9 7.4h.2l3.6-6.5 1.1.2z" class="st9"/></g><g class="st13"><path d="M942.3 224.8c.2-1 .5-1.6.9-1.9.4-.2.9-.3 1.6-.2l2.2.4c.8.1 1.2.4 1.5.7.1.2.2.4.2.7 0 .3 0 .7-.2 1.2l-1.1 5.9-1.1-.2.2-1c-.6.3-1.1.5-1.4.6-.3.1-.7.1-1.1 0l-1.2-.2c-.7-.1-1.2-.4-1.4-.8-.3-.4-.3-1-.1-1.9.2-.9.5-1.5.9-1.8.2-.2.5-.2.9-.3.3 0 .9 0 1.6.2.9.2 1.8.4 2.5.7l.3-1.4c.1-.7.1-1.1 0-1.3-.1-.2-.4-.3-.8-.4l-1.7-.3c-.5-.1-.8-.1-1 0-.2.2-.4.6-.5 1.2l-1.2.1zm2.1 5.4c.4.1.7.1 1 0 .3 0 .7-.2 1.2-.4l.4-2.1-2.7-.5c-.5-.1-.8-.1-1-.1-.2 0-.3 0-.5.1s-.4.5-.5 1.1c-.1.6-.1 1.1 0 1.2.1.2.4.3.8.4l1.3.3zM951.1 232.5l-1.1-.2 2.1-11 1.1.2-2.1 11zM956.4 225.1l-1.6 8.2-1.1-.2 1.6-8.2 1.1.2zm.7-3-.3 1.5-1.3-.3.3-1.5 1.3.3zM964 235l-1.1-.2.2-1.1c-.6.3-1.1.6-1.5.6-.3.1-.7.1-1.1 0l-1-.2c-.8-.2-1.4-.4-1.6-.8-.2-.3-.3-.7-.3-1.2s.1-1.3.4-2.5c.2-1.2.4-2 .6-2.5.2-.5.4-.8.7-1 .4-.3 1-.3 1.8-.2l1 .2c.4.1.7.2 1 .4.3.2.6.6 1.1 1.1l.8-3.9 1.1.2L964 235zm-3-1.6c.3.1.7.1 1 0 .3-.1.7-.2 1.2-.4l.9-4.7c-.4-.4-.7-.6-1-.8-.3-.2-.6-.3-.9-.3l-1.1-.2c-.5-.1-.9-.1-1.2.1-.2.1-.3.4-.5.7-.1.4-.3 1-.5 2s-.3 1.7-.3 2.1c0 .4 0 .7.2.8.2.2.5.4 1 .5l1.2.2z" class="st9"/></g><g class="st13"><path d="m973.4 236.8-1.1-.2 1.4-7.2-1.4-.3.2-1 1.4.3.1-.6c.2-.9.4-1.5.8-1.7.3-.2.8-.3 1.4-.2l1.3.2-.2 1-1-.2c-.3-.1-.5 0-.6.1-.2.1-.3.5-.4 1l-.1.6 1.9.4-.2 1-1.8-.4-1.7 7.2z" class="st9"/></g><g class="st13"><path d="M979.4 238c-.8-.2-1.3-.4-1.6-.8-.2-.3-.3-.7-.3-1.2s.1-1.4.3-2.5c.2-1.2.4-2 .6-2.5.2-.5.5-.8.8-1 .4-.2 1-.3 1.8-.1l2.1.4c.8.2 1.3.4 1.6.8.2.3.3.7.4 1.2 0 .5-.1 1.3-.3 2.5-.2 1.2-.4 2-.6 2.5-.2.5-.5.8-.8 1-.4.2-.9.3-1.7.1l-2.3-.4zm-.5-4.4c-.2 1-.3 1.8-.3 2.1 0 .4 0 .6.1.8.1.2.5.3 1 .4l1.9.4c.5.1.8.1 1 0 .2-.1.3-.3.4-.7.1-.4.3-1.1.5-2.1s.3-1.7.3-2.1c0-.4 0-.7-.1-.8-.1-.2-.4-.3-.9-.4l-1.9-.4c-.5-.1-.9-.1-1 0-.2.1-.3.3-.4.7-.2.4-.4 1.1-.6 2.1zM987.4 239.5l-1.1-.2 1.6-8.2 1.1.2-.3 1.3c.6-.4 1.1-.7 1.4-.9.3-.1.6-.2.9-.1l1 .2-.2 1.2-1.1-.2c-.3-.1-.7-.1-.9 0-.3 0-.7.2-1.1.4l-1.3 6.3zM997.2 232.9l1.1.2-.2 1.1c.7-.4 1.1-.6 1.4-.7.3-.1.7-.1 1.1 0l.9.2c.8.2 1.4.4 1.6.8.2.3.3.7.3 1.2s-.1 1.3-.3 2.5c-.2 1.2-.4 2-.6 2.5-.2.5-.4.8-.7 1-.4.3-1 .3-1.8.2l-.9-.2c-.4-.1-.8-.2-1-.4-.3-.2-.6-.6-1.1-1.1l-.7 3.4-1.1-.2 2-10.5zm2.9 1.6c-.3-.1-.7-.1-1 0-.3.1-.7.2-1.2.4l-.9 4.7c.4.4.7.6 1 .8.3.2.6.3.9.4l1 .2c.5.1.9.1 1.2-.1.2-.1.3-.4.5-.7.1-.3.3-1 .5-2s.3-1.7.3-2.1c0-.4 0-.6-.2-.8-.1-.2-.5-.4-1-.5l-1.1-.3z" class="st9"/></g><g class="st13"><path d="M1007.1 237.4c.2-1 .5-1.6.9-1.9.4-.2.9-.3 1.6-.2l2.2.4c.8.1 1.2.4 1.5.7.1.2.2.4.2.7 0 .3 0 .7-.2 1.2l-1.1 5.9-1.1-.2.2-1c-.6.3-1.1.5-1.4.6-.3.1-.7.1-1.1 0l-1.2-.2c-.7-.1-1.2-.4-1.4-.8-.3-.4-.3-1-.1-1.9.2-.9.5-1.5.9-1.8.2-.2.5-.2.9-.3.3 0 .9 0 1.6.2.9.2 1.8.4 2.5.7l.3-1.4c.1-.7.1-1.1 0-1.3-.1-.2-.4-.3-.8-.4l-1.7-.3c-.5-.1-.8-.1-1 0-.2.2-.4.6-.5 1.2l-1.2.1zm2.1 5.4c.4.1.7.1 1 0 .3 0 .7-.2 1.2-.4l.4-2.1-2.7-.5c-.5-.1-.8-.1-1-.1-.2 0-.3 0-.5.1s-.4.5-.5 1.1c-.1.6-.1 1.1 0 1.2.1.2.4.3.8.4l1.3.3z" class="st9"/></g><g class="st13"><path d="m1015.5 236.5 1.3.2 1.2 7.1h.1l3.5-6.2 1.2.2-5.3 8.9c-.2.3-.4.5-.6.6-.2.1-.5.1-.9 0-.3-.1-.9-.2-1.6-.4l.2-.9 1.5.3c.2 0 .4 0 .5-.3l.5-.9-1.6-8.6zM1024.6 238.3l1.1.2-.2 1.1c.6-.3 1.1-.6 1.4-.6.3-.1.7-.1 1.1 0l.9.2c.7.1 1.1.4 1.3.7.1.2.2.5.2.8.7-.4 1.2-.6 1.5-.7.3-.1.7-.1 1.1 0l.9.2c.7.1 1.1.4 1.3.7.2.4.3.9.1 1.7l-1.2 6.1-1.1-.2 1.2-6.1c.1-.4.1-.8-.1-1-.1-.2-.4-.3-.9-.4l-.8-.1c-.3-.1-.7-.1-1 0-.3.1-.7.2-1.2.4v.3l-1.2 6.1-1.1-.2 1.2-6.1c.1-.4.1-.8-.1-1-.1-.2-.4-.3-.9-.4l-.8-.1c-.3-.1-.7-.1-1 0-.3.1-.7.2-1.2.4l-1.3 6.5-1.1-.2 1.9-8.3zM1044 246.6l-5.5-1.1c-.2.9-.2 1.5-.3 1.8 0 .3 0 .6.1.7.1.2.4.3.9.4l2 .4c.4.1.8.1.9-.1.2-.1.4-.5.5-1.2l1.1.2c-.1.6-.3 1.1-.4 1.3-.1.3-.3.5-.6.7-.3.2-.9.3-1.6.1l-2.4-.5c-.8-.2-1.3-.4-1.6-.8-.2-.3-.3-.7-.3-1.2s.1-1.4.3-2.5c.2-1.2.4-2 .6-2.5.2-.5.5-.8.8-1 .4-.2 1-.3 1.8-.1l2.1.4c.8.2 1.3.4 1.6.8.2.3.3.7.3 1.2s-.1 1.3-.3 2.5v.3c.1.2.1.2 0 .2zm-4.5-4.2c-.1.1-.3.3-.4.6-.1.3-.2.8-.4 1.7l4.5.9c.1-.8.2-1.4.2-1.7 0-.3 0-.6-.2-.7-.1-.2-.4-.3-.9-.4l-1.8-.4c-.5-.1-.8-.1-1 0zM1046.9 251.1l-1.1-.2 1.6-8.2 1.1.2-.2 1.1c.6-.3 1.1-.6 1.4-.6.3-.1.7-.1 1.1 0l1.2.2c.7.1 1.1.4 1.3.7.2.4.3.9.1 1.7l-1.2 6.1-1.1-.2 1.2-6.1c.1-.4.1-.8-.1-1-.1-.2-.4-.3-.9-.4l-1.1-.2c-.3-.1-.7-.1-1 0-.3.1-.7.2-1.2.4l-1.1 6.5zM1058.9 252.4l-.1.7h-.8c-.4 0-.8 0-1.1-.1-.6-.1-.9-.3-1.1-.6-.2-.3-.2-.7-.1-1.4l1.1-5.6-1.4-.3.2-1 1.4.3.4-2.1 1.1.2-.4 2.1 2.3.4-.2 1-2.3-.4-1 5.3c-.1.4-.1.6 0 .8.1.1.3.2.7.3l1.3.4zM1066.8 246.4l-1.6 8.2-1.1-.2 1.6-8.2 1.1.2zm.6-2.9-.3 1.5-1.3-.3.3-1.5 1.3.3zM1068.9 255.3l-1.1-.2 1.6-8.2 1.1.2-.2 1.1c.6-.3 1.1-.6 1.4-.6.3-.1.7-.1 1.1 0l1.2.2c.7.1 1.1.4 1.3.7.2.4.3.9.1 1.7l-1.2 6.1-1.1-.2 1.2-6.1c.1-.4.1-.8-.1-1-.1-.2-.4-.3-.9-.4l-1.1-.2c-.3-.1-.7-.1-1 0-.3.1-.7.2-1.2.4l-1.1 6.5z" class="st9"/></g><g class="st13"><path d="m1084.9 258.4-1.1-.2 1.4-7.2-1.4-.3.2-1 1.4.3.1-.6c.2-.9.4-1.5.8-1.7.3-.2.8-.3 1.4-.2l1.3.2-.2 1-1-.2c-.3-.1-.5 0-.6.1-.2.1-.3.5-.4 1l-.1.6 1.9.4-.2 1-1.8-.4-1.7 7.2z" class="st9"/></g><g class="st13"><path d="M1090.8 259.6c-.8-.2-1.3-.4-1.6-.8-.2-.3-.3-.7-.3-1.2s.1-1.4.3-2.5c.2-1.2.4-2 .6-2.5.2-.5.5-.8.8-1 .4-.2 1-.3 1.8-.1l2.1.4c.8.2 1.3.4 1.6.8.2.3.3.7.4 1.2 0 .5-.1 1.3-.3 2.5-.2 1.2-.4 2-.6 2.5-.2.5-.5.8-.8 1-.4.2-.9.3-1.7.1l-2.3-.4zm-.4-4.4c-.2 1-.3 1.8-.3 2.1 0 .4 0 .6.1.8.1.2.5.3 1 .4l1.9.4c.5.1.8.1 1 0 .2-.1.3-.3.4-.7.1-.4.3-1.1.5-2.1s.3-1.7.3-2.1c0-.4 0-.7-.1-.8-.1-.2-.4-.3-.9-.4l-1.9-.4c-.5-.1-.9-.1-1 0-.2.1-.3.3-.4.7-.2.4-.4 1.1-.6 2.1z" class="st9"/></g><g class="st13"><path d="m1099.1 261.2-1.1-.2 1.6-8.2 1.1.2-.3 1.3c.6-.5 1.1-.7 1.4-.9.3-.1.6-.2.9-.1l1 .2-.2 1.2-1.1-.2c-.3-.1-.7-.1-.9 0-.3 0-.7.2-1.1.4l-1.3 6.3z" class="st9"/></g><g class="st13"><path d="m1111.2 259.6-5.5-1.1c-.2.9-.2 1.5-.3 1.8 0 .3 0 .6.1.7.1.2.4.3.9.4l2 .4c.4.1.7.1.9-.1.2-.1.4-.6.5-1.2l1.1.2c-.1.6-.3 1.1-.4 1.3-.1.3-.3.5-.6.7-.3.2-.9.3-1.6.1l-2.4-.5c-.8-.2-1.3-.4-1.6-.8-.2-.3-.3-.7-.3-1.2s.1-1.4.3-2.5c.2-1.2.4-2 .6-2.5.2-.5.5-.8.8-1 .4-.2 1-.3 1.8-.1l2.1.4c.8.2 1.3.4 1.6.8.2.3.3.7.3 1.2s-.1 1.3-.3 2.5l-.1.3c.3.2.2.3.1.2zm-4.5-4.2c-.1.1-.3.3-.4.6-.1.3-.2.8-.4 1.7l4.5.9c.1-.8.2-1.4.2-1.7 0-.3 0-.6-.2-.7-.1-.2-.4-.3-.9-.4l-1.8-.4c-.4-.1-.8-.1-1 0zM1115.7 255.9l-1.6 8.2-1.1-.2 1.6-8.2 1.1.2zm.7-3-.3 1.5-1.3-.3.3-1.5 1.3.3zM1120.9 267.8l-2.9-.6c-.6-.1-1-.3-1.2-.7-.2-.3-.3-.9-.1-1.7l1.1.2c-.1.4 0 .7.1.9.1.1.3.3.7.3l2.3.4c.4.1.7.1.8 0 .2-.1.4-.5.5-1.2l.3-1.7c-.6.3-1.1.6-1.4.6-.3.1-.7.1-1.1 0l-.9-.2c-.8-.2-1.4-.4-1.6-.8-.2-.3-.3-.7-.3-1.1 0-.5.1-1.2.3-2.2.2-1 .4-1.8.6-2.2.2-.4.4-.7.7-.9.4-.3 1-.3 1.8-.2l.9.2c.4.1.8.2 1 .4.3.2.6.6 1.1 1.1l.2-1.1 1.1.2-1.6 8c-.1.6-.2 1.1-.4 1.3-.1.3-.3.5-.5.6-.3.5-.8.5-1.5.4zm-.4-4.3c.3.1.7.1 1 0 .3-.1.7-.2 1.2-.4l.8-4c-.4-.4-.7-.6-1-.8-.3-.2-.6-.3-.9-.4l-1-.2c-.5-.1-.9-.1-1.2.1-.2.1-.3.3-.4.6-.1.3-.2.9-.4 1.7-.2.9-.3 1.5-.3 1.8 0 .3.1.6.2.7.1.2.5.4 1 .5l1 .4zM1127 266.6l-1.1-.2 1.6-8.2 1.1.2-.2 1.1c.6-.3 1.1-.6 1.4-.6.3-.1.7-.1 1.1 0l1.2.2c.7.1 1.1.4 1.3.7.2.4.3.9.1 1.7l-1.2 6.1-1.1-.2 1.2-6.1c.1-.4.1-.8-.1-1-.1-.2-.4-.3-.9-.4l-1.1-.2c-.3-.1-.7-.1-1 0-.3.1-.7.2-1.2.4l-1.1 6.5z" class="st9"/></g><g class="st13"><path d="m1147 266.6-5.5-1.1c-.2.9-.2 1.5-.3 1.8 0 .3 0 .6.1.7.1.2.4.3.9.4l2 .4c.4.1.8.1.9-.1.2-.1.4-.6.5-1.2l1.1.2c-.1.6-.3 1.1-.4 1.3-.1.3-.3.5-.6.7-.3.2-.9.3-1.6.1l-2.4-.5c-.8-.2-1.3-.4-1.6-.8-.2-.3-.3-.7-.3-1.2s.1-1.4.3-2.5c.2-1.2.4-2 .6-2.5.2-.5.5-.8.8-1 .4-.2 1-.3 1.8-.1l2.1.4c.8.2 1.3.4 1.6.8.2.3.3.7.3 1.2s-.1 1.3-.3 2.5l-.1.3c.3.2.3.2.1.2zm-4.5-4.2c-.1.1-.3.3-.4.6-.1.3-.2.8-.4 1.7l4.5.9c.1-.8.2-1.4.2-1.7 0-.3 0-.6-.2-.7-.1-.2-.4-.3-.9-.4l-1.8-.4c-.4-.2-.7-.2-1 0zM1148.9 270.8l-1.2-.2 3.7-3.6-2.1-4.6 1.3.3 1.6 3.6h.1l2.8-2.8 1.3.2-3.6 3.5 2.1 4.7-1.3-.3-1.7-3.7h-.1l-2.9 2.9z" class="st9"/></g><g class="st13"><path d="m1162.6 270.6 1.1.2c-.2.7-.3 1.2-.5 1.5-.2.3-.3.5-.6.7-.3.2-.8.3-1.5.1l-2.2-.4c-.8-.2-1.3-.4-1.6-.8-.2-.3-.3-.7-.3-1.2s.1-1.4.3-2.5c.2-1.2.4-2 .6-2.5.2-.5.5-.8.8-1 .4-.2 1-.3 1.8-.1l2.1.4c.7.1 1.2.4 1.4.7.2.2.2.5.3.9 0 .3 0 .8-.1 1.5l-1.1-.2c.1-.8.1-1.3 0-1.5-.1-.2-.4-.3-.8-.4l-1.8-.3c-.5-.1-.9-.1-1 0-.2.1-.3.3-.4.7-.1.4-.3 1.1-.5 2.1s-.3 1.8-.3 2.1c0 .4 0 .6.1.8.1.2.4.3 1 .4l1.8.3c.4.1.7.1.9 0 .2-.2.4-.6.5-1.5zM1166.5 274.2l-1.1-.2 2.1-11 1.1.2-.8 3.9c.6-.3 1.1-.6 1.4-.6.3-.1.7-.1 1.1 0l1.2.2c.7.1 1.1.4 1.3.7.2.4.3.9.1 1.7l-1.2 6.1-1.1-.2 1.2-6.1c.1-.4.1-.8-.1-1-.1-.2-.4-.3-.9-.4l-1.1-.2c-.3-.1-.7-.1-1 0-.3.1-.7.2-1.2.4l-1 6.5zM1175.6 270c.2-1 .5-1.6.9-1.9.4-.2.9-.3 1.6-.2l2.2.4c.8.1 1.2.4 1.5.7.1.2.2.4.2.7 0 .3 0 .7-.2 1.2l-1.1 5.9-1.1-.2.2-1c-.6.3-1.1.5-1.4.6-.3.1-.7.1-1.1 0l-1.2-.2c-.7-.1-1.2-.4-1.4-.8-.3-.4-.3-1-.1-1.9.2-.9.5-1.5.9-1.8.2-.2.5-.2.9-.3s.9 0 1.6.2c.9.2 1.8.4 2.5.7l.3-1.4c.1-.7.1-1.1 0-1.3-.1-.2-.4-.3-.8-.4l-1.7-.3c-.5-.1-.8-.1-1 0-.2.2-.4.6-.5 1.2l-1.2.1zm2.1 5.4c.4.1.7.1 1 0 .3 0 .7-.2 1.2-.4l.4-2.1-2.7-.5c-.5-.1-.8-.1-1-.1-.2 0-.3.1-.5.1-.2.1-.4.5-.5 1.1-.1.6-.1 1.1 0 1.2.1.2.4.3.8.4l1.3.3zM1184.4 277.7l-1.1-.2 1.6-8.2 1.1.2-.2 1.1c.6-.3 1.1-.6 1.4-.6.3-.1.7-.1 1.1 0l1.2.2c.7.1 1.1.4 1.3.7.2.4.3.9.1 1.7l-1.2 6.1-1.1-.2 1.2-6.1c.1-.4.1-.8-.1-1-.1-.2-.4-.3-.9-.4l-1.1-.2c-.3-.1-.7-.1-1 0-.3.1-.7.2-1.2.4l-1.1 6.5zM1196.5 282.4l-2.9-.6c-.6-.1-1-.3-1.2-.7-.2-.3-.3-.9-.1-1.7l1.1.2c-.1.4 0 .7.1.9.1.1.3.3.7.3l2.3.4c.4.1.7.1.8 0 .2-.1.4-.5.5-1.2l.3-1.7c-.6.3-1.1.6-1.4.6-.3.1-.7.1-1.1 0l-.9-.2c-.8-.2-1.4-.4-1.6-.8-.2-.3-.3-.7-.3-1.1 0-.5.1-1.2.3-2.2.2-1 .4-1.8.6-2.2.2-.4.4-.7.7-.9.4-.3 1-.3 1.8-.2l.9.2c.4.1.8.2 1 .4.3.2.6.6 1.1 1.1l.2-1.1 1.1.2-1.6 8c-.1.6-.2 1.1-.4 1.3-.1.3-.3.5-.5.6-.3.5-.8.6-1.5.4zm-.4-4.2c.3.1.7.1 1 0 .3-.1.7-.2 1.2-.4l.8-4c-.4-.4-.7-.6-1-.8-.3-.2-.6-.3-.9-.4l-1-.2c-.5-.1-.9-.1-1.2.1-.2.1-.3.3-.4.6-.1.3-.2.9-.4 1.7-.2.9-.3 1.5-.3 1.8 0 .3.1.6.2.7.1.2.5.4 1 .5l1 .4zM1208.5 278.5l-5.5-1.1c-.2.9-.2 1.5-.3 1.8 0 .3 0 .6.1.7.1.2.4.3.9.4l2 .4c.4.1.8.1.9-.1.2-.1.4-.5.5-1.2l1.1.2c-.1.6-.3 1.1-.4 1.3-.1.3-.3.5-.6.7-.3.2-.9.3-1.6.1l-2.4-.5c-.8-.2-1.3-.4-1.6-.8-.2-.3-.3-.7-.3-1.2s.1-1.4.3-2.5c.2-1.2.4-2 .6-2.5.2-.5.5-.8.8-1 .4-.2 1-.3 1.8-.1l2.1.4c.8.2 1.3.4 1.6.8.2.3.3.7.3 1.2s-.1 1.3-.3 2.5l-.1.3c.3.2.3.2.1.2zm-4.4-4.2c-.1.1-.3.3-.4.6-.1.3-.2.8-.4 1.7l4.5.9c.1-.8.2-1.4.2-1.7 0-.3 0-.6-.2-.7-.1-.2-.4-.3-.9-.4l-1.8-.4c-.5-.2-.8-.1-1 0zM1216.5 275.4l-1.6 8.2-1.1-.2 1.6-8.2 1.1.2zm.7-3-.3 1.5-1.3-.3.3-1.5 1.3.3zM1218.7 284.3l-1.1-.2 1.6-8.2 1.1.2-.2 1.1c.6-.3 1.1-.6 1.4-.6.3-.1.7-.1 1.1 0l1.2.2c.7.1 1.1.4 1.3.7.2.4.3.9.1 1.7l-1.2 6.1-1.1-.2 1.2-6.1c.1-.4.1-.8-.1-1-.1-.2-.4-.3-.9-.4l-1.1-.2c-.3-.1-.7-.1-1 0-.3.1-.7.2-1.2.4l-1.1 6.5zM1240.5 277.4l-2.1 10.7-1.2-.2c-.2 0-.3-.1-.4-.2-.1-.1-.1-.2-.2-.4l-3.2-9.7h-.2l-1.8 9.2-1.2-.2 2.1-10.7 1.3.3c.2 0 .3.1.4.2.1.1.1.2.2.4l3.2 9.5h.2l1.7-8.9h1.2zM1248.2 286.2l-5.5-1.1c-.2.9-.2 1.5-.3 1.8 0 .3 0 .6.1.7.1.2.4.3.9.4l2 .4c.4.1.8.1.9-.1.2-.1.4-.6.5-1.2l1.1.2c-.1.6-.3 1.1-.4 1.3-.1.3-.3.5-.6.7-.3.2-.9.3-1.6.1l-2.4-.5c-.8-.2-1.3-.4-1.6-.8-.2-.3-.3-.7-.3-1.2s.1-1.4.3-2.5c.2-1.2.4-2 .6-2.5s.5-.8.8-1c.4-.2 1-.3 1.8-.1l2.1.4c.8.2 1.3.4 1.6.8.2.3.3.7.3 1.2s-.1 1.3-.3 2.5l-.1.3c.3.2.3.2.1.2zm-4.5-4.2c-.1.1-.3.3-.4.6-.1.3-.2.8-.4 1.7l4.5.9c.1-.8.2-1.4.2-1.7 0-.3 0-.6-.2-.7-.1-.2-.4-.3-.9-.4l-1.8-.4c-.4-.2-.8-.2-1 0zM1251.6 282.2l1.1.2-.2 1.1c.7-.4 1.1-.6 1.4-.7.3-.1.7-.1 1.1 0l.9.2c.8.2 1.4.4 1.6.8.2.3.3.7.3 1.2s-.1 1.3-.3 2.5c-.2 1.2-.4 2-.6 2.5-.2.5-.4.8-.7 1-.4.3-1 .3-1.8.2l-.9-.2c-.4-.1-.8-.2-1-.4-.3-.2-.6-.6-1.1-1.1l-.7 3.4-1.1-.2 2-10.5zm2.9 1.6c-.3-.1-.7-.1-1 0-.3.1-.7.2-1.2.4l-.9 4.7c.4.4.7.6 1 .8.3.2.6.3.9.4l1 .2c.5.1.9.1 1.2-.1.2-.1.3-.4.5-.7.1-.3.3-1 .5-2s.3-1.7.3-2.1c0-.4 0-.6-.2-.8-.1-.2-.5-.4-1-.5l-1.1-.3zM1260.2 286.4c.2-1 .5-1.6.9-1.9.4-.2.9-.3 1.6-.2l2.2.4c.8.1 1.2.4 1.5.7.1.2.2.4.2.7 0 .3 0 .7-.2 1.2l-1.1 5.9-1.1-.2.2-1c-.6.3-1.1.5-1.4.6-.3.1-.7.1-1.1 0l-1.2-.2c-.7-.1-1.2-.4-1.4-.8-.3-.4-.3-1-.1-1.9.2-.9.5-1.5.9-1.8.2-.2.5-.2.9-.3.3 0 .9 0 1.6.2.9.2 1.8.4 2.6.7l.3-1.4c.1-.7.1-1.1 0-1.3-.1-.2-.4-.3-.8-.4l-1.7-.3c-.5-.1-.8-.1-1 0-.2.1-.4.6-.5 1.2l-1.3.1zm2.1 5.4c.4.1.7.1 1 0 .3 0 .7-.2 1.2-.4l.4-2.1-2.7-.5c-.5-.1-.8-.1-1-.1-.2 0-.3.1-.5.1-.2.1-.4.5-.5 1.1-.1.6-.1 1.1 0 1.2.1.2.4.3.8.4l1.3.3zM1269 294.1l-1.1-.2 2.1-11 1.1.2-2.1 11zM1284 297l-1.5-.3-1.4-2.3h-.1l-.9.9c-.6.5-1.3.7-2.1.6l-.8-.1c-.8-.2-1.4-.4-1.7-.8-.2-.3-.3-.6-.3-1s.1-1 .2-1.7c.2-.8.3-1.3.4-1.6.1-.3.3-.5.6-.7.3-.2.9-.3 1.6-.3h.1c-.1-.5-.1-1.1 0-1.8s.3-1.3.4-1.6c.1-.3.3-.6.6-.7.4-.2 1-.3 1.8-.1l1 .2c.7.1 1.2.4 1.4.7.2.2.3.6.3.9 0 .4-.1 1-.2 1.7l-1.1-.2c.2-1 .2-1.6.1-1.8-.1-.2-.4-.3-.8-.4l-.7-.1c-.5-.1-.8-.1-1 .1-.1.1-.2.2-.3.5-.1.2-.2.6-.3 1.2-.1.5-.1.9 0 1.2 0 .2.2.5.5 1l1.6 2.4h.1l2.3-2.1 1.3.3-3.1 2.8 2 3.1zm-6.1-2.2c.6.1 1 0 1.4-.3l1.1-1-1.9-3h-.5c-.4 0-.7.1-.9.2-.2.2-.4.7-.6 1.6-.1.6-.2 1-.2 1.3 0 .3.1.5.2.6.1.2.5.4 1.1.5l.3.1zM1289.3 298l2.1-10.7 5.4 1c.8.2 1.3.4 1.6.8.2.3.3.6.3.9 0 .4 0 .9-.1 1.6-.1.7-.4 1.2-.7 1.5-.3.3-.7.5-1.3.5.6.2.9.5 1.1 1 .2.4.2 1 0 1.9-.2.8-.3 1.4-.5 1.7-.2.3-.4.6-.7.8-.4.3-1 .3-1.8.2l-5.4-1.2zm7.2-1.7c.2-.9.2-1.5 0-1.8-.1-.2-.4-.4-.9-.4l-4-.8-.8 4 4 .8c.5.1.8.1 1 0 .3-.3.5-.9.7-1.8zm-4.8-4.1 3.9.8c.5.1.8.1 1-.1.3-.2.5-.7.7-1.5.2-.8.1-1.4 0-1.6-.1-.2-.4-.3-.9-.4l-3.9-.8-.8 3.6zM1300.6 300.2l-1.1-.2 2.1-11 1.1.2-.8 3.9c.6-.3 1.1-.6 1.4-.6.3-.1.7-.1 1.1 0l1.2.2c.7.1 1.1.4 1.3.7.2.4.3.9.1 1.7l-1.2 6.1-1.1-.2 1.2-6.1c.1-.4.1-.8-.1-1-.1-.2-.4-.3-.9-.4l-1.1-.2c-.3-.1-.7-.1-1 0-.3.1-.7.2-1.2.4l-1 6.5zM1315.5 294.6l1.1.2-1.6 8.2-1.1-.2.2-1.1c-.7.4-1.1.6-1.5.7-.3.1-.7.1-1.1 0l-1.2-.2c-.7-.1-1.1-.4-1.3-.7-.2-.3-.3-.9-.1-1.7l1.2-6.1 1.1.2-1.2 6.1c-.1.4-.1.8.1.9.1.2.4.3.9.4l1.1.2c.3.1.7.1 1 0 .3 0 .7-.2 1.2-.4l1.2-6.5zM1321.7 303.3l-.1.7h-.8c-.4 0-.8 0-1.1-.1-.6-.1-.9-.3-1.1-.6-.2-.3-.2-.7-.1-1.4l1.1-5.6-1.4-.3.2-1 1.4.3.4-2.1 1.1.2-.4 2.1 2.3.4-.2 1-2.3-.4-1 5.3c-.1.4-.1.6 0 .8.1.1.3.2.7.3l1.3.4zM1324.5 298.9c.2-1 .5-1.6.9-1.9.4-.2.9-.3 1.6-.2l2.2.4c.8.1 1.2.4 1.5.7.1.2.2.4.2.7 0 .3 0 .7-.2 1.2l-1.1 5.9-1.1-.2.2-1c-.6.3-1.1.5-1.4.6-.3.1-.7.1-1.1 0l-1.2-.2c-.7-.1-1.2-.4-1.4-.8-.3-.4-.3-1-.1-1.9.2-.9.5-1.5.9-1.8.2-.2.5-.2.9-.3.3 0 .9 0 1.6.2.9.2 1.8.4 2.6.7l.3-1.4c.1-.7.1-1.1 0-1.3-.1-.2-.4-.3-.8-.4l-1.7-.3c-.5-.1-.8-.1-1 0-.2.2-.4.6-.5 1.2l-1.3.1zm2.2 5.4c.4.1.7.1 1 0 .3 0 .7-.2 1.2-.4l.4-2.1-2.7-.5c-.5-.1-.8-.1-1-.1-.2 0-.3 0-.5.1s-.4.5-.5 1.1c-.1.6-.1 1.1 0 1.2.1.2.4.3.8.4l1.3.3zM1333.4 306.5l-1.1-.2 1.6-8.2 1.1.2-.2 1.1c.6-.3 1.1-.6 1.4-.6.3-.1.7-.1 1.1 0l1.2.2c.7.1 1.1.4 1.3.7.2.4.3.9.1 1.7l-1.2 6.1-1.1-.2 1.2-6.1c.1-.4.1-.8-.1-1-.1-.2-.4-.3-.9-.4l-1.1-.2c-.3-.1-.7-.1-1 0-.3.1-.7.2-1.2.4l-1.1 6.5z" class="st9"/></g><g class="st13"><path d="m1415.7 309.9-2 10.7-1.2-.2c-.2 0-.3-.1-.4-.2-.1-.1-.1-.2-.2-.4l-3.3-9.7h-.2l-1.7 9.2-1.2-.2 2-10.7 1.3.3c.2 0 .3.1.4.2.1.1.1.2.2.4l3.2 9.4h.2l1.7-8.9 1.2.1zM1418.5 321.5c-.8-.2-1.3-.4-1.6-.8-.2-.3-.3-.7-.3-1.2s.1-1.4.3-2.5c.2-1.2.4-2 .6-2.5.2-.5.5-.8.8-1 .4-.2 1-.3 1.8-.1l2.1.4c.8.2 1.3.4 1.6.8.2.3.3.7.4 1.2 0 .5-.1 1.3-.3 2.5s-.4 2-.6 2.5c-.2.5-.5.8-.8 1-.4.3-.9.3-1.7.1l-2.3-.4zm-.5-4.3c-.2 1-.3 1.8-.3 2.1 0 .4 0 .6.1.8.1.2.5.3 1 .4l1.9.4c.5.1.8.1 1 0 .2-.1.3-.3.4-.7.1-.4.3-1.1.5-2.1s.3-1.7.3-2.1c0-.4 0-.7-.1-.8-.1-.2-.4-.3-.9-.4l-1.9-.4c-.5-.1-.9-.1-1 0-.2.1-.3.3-.4.7-.2.3-.4 1-.6 2.1zM1429.4 322.6l-.1.7h-.8c-.4 0-.8 0-1.1-.1-.6-.1-.9-.3-1.1-.6-.2-.3-.2-.7-.1-1.4l1.1-5.6-1.4-.3.2-1 1.4.3.4-2.1 1.1.2-.4 2.1 2.3.4-.2 1-2.3-.4-1 5.3c-.1.4-.1.6 0 .8.1.1.3.2.7.3l1.3.4z" class="st9"/></g><g class="st13"><path d="m1445.2 316.6-3.5-.7-1.8 9.7-1.2-.2 1.8-9.7-3.5-.7.2-1 8.2 1.6-.2 1z" class="st9"/></g><g class="st13"><path d="m1445.7 326.7-1.1-.2 1.6-8.2 1.1.2-.3 1.3c.6-.5 1.1-.7 1.4-.9.3-.1.6-.2.9-.1l1 .2-.2 1.2-1.1-.2c-.3-.1-.7-.1-.9 0-.3 0-.7.2-1.1.4l-1.3 6.3z" class="st9"/></g><g class="st13"><path d="M1451.8 321.9c.2-1 .5-1.6.9-1.9.4-.2.9-.3 1.6-.2l2.2.4c.8.1 1.2.4 1.5.7.1.2.2.4.2.7 0 .3 0 .7-.2 1.2l-1.1 5.9-1.1-.2.2-1c-.6.3-1.1.5-1.4.6-.3.1-.7.1-1.1 0l-1.2-.2c-.7-.1-1.2-.4-1.4-.8-.3-.4-.3-1-.2-1.9.2-.9.5-1.5.9-1.8.2-.2.5-.2.9-.3.3 0 .9 0 1.6.2.9.2 1.8.4 2.6.7l.3-1.4c.1-.7.1-1.1 0-1.3-.1-.2-.4-.3-.8-.4l-1.7-.3c-.5-.1-.8-.1-1 0-.2.2-.4.6-.5 1.2l-1.2.1zm2.1 5.4c.4.1.7.1 1 0 .3 0 .7-.2 1.2-.4l.4-2.1-2.7-.5c-.5-.1-.8-.1-1-.1-.2 0-.3.1-.5.1-.2.1-.4.5-.5 1.1-.1.6-.1 1.1 0 1.2.1.2.4.3.8.4l1.3.3zM1460.6 329.5l-1.1-.2 1.6-8.2 1.1.2-.2 1.1c.6-.3 1.1-.6 1.4-.6.3-.1.7-.1 1.1 0l1.2.2c.7.1 1.1.4 1.3.7.2.4.3.9.1 1.7l-1.2 6.1-1.1-.2 1.2-6.1c.1-.4.1-.8-.1-1-.1-.2-.4-.3-.9-.4l-1.1-.2c-.3-.1-.7-.1-1 0-.3.1-.7.2-1.2.4l-1.1 6.5z" class="st9"/></g><g class="st13"><path d="M1475.8 330c-.2 1-.5 1.6-.9 1.9-.3.2-.7.2-1.3.1l-3-.6c-.6-.1-1-.3-1.2-.6-.1-.2-.2-.5-.2-.8 0-.3 0-.8.2-1.5l1 .2c-.1.8-.1 1.2 0 1.4.1.1.3.3.7.3l2.5.5c.3.1.6 0 .7-.1.2-.1.3-.5.4-1.1.1-.6.1-.9 0-1.1-.1-.2-.3-.3-.7-.4l-2.6-.8c-.7-.2-1.1-.4-1.2-.7-.1-.2-.2-.4-.2-.7 0-.3 0-.7.1-1.2.2-.9.5-1.5.9-1.8.3-.2.7-.2 1.3-.1l2.8.5c.6.1 1 .3 1.2.6.1.2.2.5.2.7 0 .3 0 .8-.2 1.4l-1-.2c.1-.7.1-1.2 0-1.3-.1-.1-.3-.3-.7-.3l-2.3-.4c-.3-.1-.5 0-.7.1-.2.1-.3.5-.4 1-.1.5-.1.9 0 1 .1.1.3.3.7.4l2.6.8c.6.2 1.1.4 1.2.6.3.7.3 1.3.1 2.2zM1479.4 333.1l-1.1-.2 1.4-7.2-1.4-.3.2-1 1.4.3.1-.6c.2-.9.4-1.5.8-1.7.3-.2.8-.3 1.4-.2l1.3.2-.2 1-1-.2c-.3-.1-.5 0-.6.1-.2.1-.3.5-.4 1l-.1.6 1.9.4-.2 1-1.8-.4-1.7 7.2z" class="st9"/></g><g class="st13"><path d="m1490.5 331.4-5.5-1c-.2.9-.2 1.5-.2 1.8 0 .3 0 .6.1.7.1.2.4.3.9.4l2 .4c.4.1.8.1.9-.1.2-.1.4-.6.5-1.2l1.1.2c-.1.6-.3 1.1-.4 1.3-.1.3-.3.5-.6.7-.3.2-.9.3-1.6.1l-2.4-.5c-.8-.2-1.3-.4-1.6-.8-.2-.3-.3-.7-.3-1.2s.1-1.4.3-2.6c.2-1.2.4-2 .6-2.5.2-.5.5-.8.8-1 .4-.2 1-.3 1.8-.1l2.1.4c.8.2 1.3.4 1.6.8.2.3.3.7.3 1.2s-.1 1.3-.3 2.5l-.1.3c.2.2.2.2 0 .2zm-4.5-4.2c-.1.1-.3.3-.4.6-.1.3-.2.8-.4 1.7l4.5.9c.1-.8.2-1.4.2-1.7 0-.3 0-.6-.2-.7-.1-.2-.4-.3-.9-.4l-1.8-.3c-.4-.3-.7-.3-1-.1z" class="st9"/></g><g class="st13"><path d="m1493.8 335.9-1.1-.2 1.6-8.2 1.1.2-.3 1.3c.6-.5 1.1-.7 1.4-.9.3-.1.6-.2.9-.1l1 .2-.2 1.2-1.1-.2c-.3-.1-.7-.1-.9 0-.3 0-.7.2-1.1.4l-1.3 6.3z" class="st9"/></g><g class="st13"><path d="M1499.8 331c.2-1 .5-1.6.9-1.9.4-.2.9-.3 1.6-.2l2.2.4c.8.1 1.2.4 1.5.7.1.2.2.4.2.7 0 .3 0 .7-.2 1.2l-1.1 5.9-1.1-.2.2-1c-.6.3-1.1.5-1.4.6-.3.1-.6.1-1.1 0l-1.2-.2c-.7-.1-1.2-.4-1.4-.8-.3-.4-.3-1-.2-1.9.2-.9.5-1.5.9-1.8.2-.2.5-.2.9-.3.3 0 .9 0 1.6.2.9.2 1.8.4 2.6.7l.3-1.4c.1-.7.1-1.1 0-1.3-.1-.2-.4-.3-.8-.4l-1.7-.3c-.5-.1-.8-.1-1 0-.2.2-.4.6-.5 1.2l-1.2.1zm2.1 5.4c.4.1.7.1 1 0 .3 0 .7-.2 1.2-.4l.4-2.1-2.7-.5c-.5-.1-.8-.1-1-.1-.2 0-.3.1-.5.1-.2.1-.4.5-.5 1.1-.1.6-.1 1.1 0 1.2.1.2.4.3.8.4l1.3.3zM1507.5 338.5l2.1-11 1.1.2-.7 3.9c.6-.4 1.1-.6 1.4-.7.3-.1.7-.1 1.1 0l1 .2c.8.2 1.4.4 1.7.8.2.3.3.7.3 1.2s-.1 1.3-.3 2.5c-.2 1.2-.4 2-.6 2.5-.2.5-.4.8-.7 1-.4.3-1 .3-1.8.2l-1-.2c-.4-.1-.8-.2-1-.4-.3-.2-.6-.6-1.1-1.1l-.2 1.1-1.3-.2zm4.5-6.6c-.3-.1-.7-.1-1 0-.3.1-.7.2-1.2.4l-.9 4.7c.4.4.7.6 1 .8.3.2.6.3.9.3l1 .2c.6.1.9.1 1.2-.1.2-.1.3-.4.4-.7.1-.4.3-1 .5-2s.3-1.7.3-2.1c0-.4 0-.6-.1-.8-.2-.2-.5-.4-1.1-.5l-1-.2zM1517.8 340.5l-1.1-.2 2.1-11 1.1.2-2.1 11zM1527.4 338.4l-5.5-1c-.2.9-.2 1.5-.2 1.8 0 .3 0 .6.1.7.1.2.4.3.9.4l2 .4c.4.1.8.1.9-.1.2-.1.4-.6.5-1.2l1.1.2c-.1.6-.3 1.1-.4 1.3-.1.3-.3.5-.6.7-.3.2-.9.3-1.6.1l-2.4-.5c-.8-.2-1.3-.4-1.6-.8-.2-.3-.3-.7-.3-1.2s.1-1.4.3-2.6c.2-1.2.4-2 .6-2.5s.5-.8.8-1c.4-.2 1-.3 1.8-.1l2.1.4c.8.2 1.3.4 1.6.8.2.3.3.7.3 1.2s-.1 1.3-.3 2.5v.3c.1.2.1.2-.1.2zm-4.5-4.2c-.1.1-.3.3-.4.6-.1.3-.2.8-.4 1.7l4.5.9c.1-.8.2-1.4.2-1.7s0-.6-.2-.7c-.1-.2-.4-.3-.9-.4l-1.8-.3c-.4-.2-.8-.2-1-.1z" class="st9"/></g><linearGradient id="SVGID_00000144329480150078156990000000920670207182839731_" x1="836.532" x2="1103.452" y1="-77.989" y2="-353.688" gradientTransform="translate(0 814)" gradientUnits="userSpaceOnUse"><stop offset=".65" style="stop-color:#3b3b3b"/><stop offset=".96" style="stop-color:#3b3b3b;stop-opacity:.1"/></linearGradient><path d="m1160.7 1133.4-850.8 127.7c-22.4 4.3-44.2-10.6-48.5-33L125.7 752.5c-4.3-22.4 10.6-44.2 33-48.5l893.9-166.9c22.4-4.3 44.2 10.6 48.4 33l92.6 514.8c4.3 22.4-10.6 44.2-32.9 48.5z" style="opacity:.1;fill:url(#SVGID_00000144329480150078156990000000920670207182839731_);enable-background:new"/><linearGradient id="SVGID_00000145756294269959337700000006110850059932539040_" x1="630.635" x2="1170.695" y1="133.215" y2="-424.615" gradientTransform="translate(0 814)" gradientUnits="userSpaceOnUse"><stop offset=".53" style="stop-color:#000"/><stop offset=".65" style="stop-color:#3b3b3b"/><stop offset="1" style="stop-color:#3b3b3b;stop-opacity:.3"/></linearGradient><path d="m1155.9 1136.8-850.8 127.7c-22.4 4.3-44.2-10.6-48.5-33L121 755.9c-4.3-22.4 10.6-44.2 33-48.5l893.9-166.9c22.4-4.3 44.2 10.6 48.4 33l92.6 514.8c4.3 22.4-10.6 44.2-33 48.5z" style="opacity:5.000000e-02;fill:url(#SVGID_00000145756294269959337700000006110850059932539040_);enable-background:new"/><path d="m1151.5 1141.3-873.9 154.9c-22.7 4.3-44.8-10.7-49.1-33.4l-86.4-510.4c-4.3-22.7 10.7-44.8 33.4-49.1l867.8-151.8c22.7-4.3 44.8 10.7 49.1 33.4l92.5 507.4c4.3 22.6-10.7 44.7-33.4 49z" style="fill:#0fd8b1"/><linearGradient id="SVGID_00000041282893877810106920000004709386477387649199_" x1="319.064" x2="1057.474" y1="452.744" y2="-285.676" gradientTransform="translate(0 814)" gradientUnits="userSpaceOnUse"><stop offset="0" style="stop-color:#00a081"/><stop offset=".3" style="stop-color:#00b899"/><stop offset="1" style="stop-color:#3ec3ae"/></linearGradient><path d="m1149.5 1143.3-873.9 154.9c-22.7 4.3-44.8-10.7-49.1-33.4l-86.4-510.4c-4.3-22.7 10.7-44.8 33.4-49.1l867.8-151.8c22.7-4.3 44.8 10.7 49.1 33.4l92.5 507.4c4.3 22.6-10.7 44.7-33.4 49z" style="fill:url(#SVGID_00000041282893877810106920000004709386477387649199_);stroke:#038e73;stroke-miterlimit:10"/><linearGradient id="SVGID_00000169538238645927892980000012225014527843357339_" x1="319.064" x2="1057.474" y1="452.744" y2="-285.676" gradientTransform="translate(0 814)" gradientUnits="userSpaceOnUse"><stop offset="0" style="stop-color:#00a081"/><stop offset=".3" style="stop-color:#00b899"/><stop offset="1" style="stop-color:#3ec3ae"/></linearGradient><path d="m1149.5 1143.3-873.9 154.9c-22.7 4.3-44.8-10.7-49.1-33.4l-86.4-510.4c-4.3-22.7 10.7-44.8 33.4-49.1l867.8-151.8c22.7-4.3 44.8 10.7 49.1 33.4l92.5 507.4c4.3 22.6-10.7 44.7-33.4 49z" style="fill:url(#SVGID_00000169538238645927892980000012225014527843357339_);stroke:#038e73;stroke-miterlimit:10"/><linearGradient id="SVGID_00000136409301770062233720000014248525974185986733_" x1="958.91" x2="1026.66" y1="-67.007" y2="-185.737" gradientTransform="translate(0 814)" gradientUnits="userSpaceOnUse"><stop offset=".07" style="stop-color:#5e5e5e"/><stop offset=".47" style="stop-color:#f2f2f2"/><stop offset=".67" style="stop-color:#efefef"/><stop offset=".75" style="stop-color:#e8e8e8"/><stop offset=".81" style="stop-color:#dcdcdc"/><stop offset=".86" style="stop-color:#cbcbcb"/><stop offset=".9" style="stop-color:#b4b4b4"/><stop offset=".94" style="stop-color:#989898"/><stop offset=".98" style="stop-color:#777"/><stop offset="1" style="stop-color:#5e5e5e"/><stop offset="1" style="stop-color:#fff"/></linearGradient><path d="M1001.9 632.2c-3.8-21.5 30.9-27.1 34-5.4 3.8 21.4-30.9 27-34 5.4zm57.5 57.9c-18.5 5.9-18.3-16-20.5-28.6l-28.8 4.6c4.1 39.6 13.5 62.5 53.9 52.8l-4.6-28.8zm-94.1 23.2c-4.5-18 25.1-15.4 35.6-18.5l-4.3-26.6-37.6 6c-8.3-29.3 12.4-26.5 33.7-30.4l-4.3-26.6-28.7 4.6c-22.6 3.6-35.8 18.2-31.7 43.6l11.7 73.3 28.9-4.6-3.3-20.8z" style="fill:url(#SVGID_00000136409301770062233720000014248525974185986733_)"/><path id="SVGID" d="m960.9 1134.8-18.6 3.1-23.1-51.9c-1.4-3.2-2.4-4.3-5.2-5.2-4.6-1.6-12-2.6-18.3-2.9l.1-2 29.9-5c3.8-.6 7.7 1.3 9.3 5.6l14 38.1 10.5-49.4 18.5-3.1-17.1 72.7zm39.1-6.5-17.6 2.9 3.1-70.5 17.6-2.9-3.1 70.5zm89.5-66.1-5 27.1 14.6-2.4-9.6-24.7zm35 45.2-16.3 2.7-3.8-9.8-22.6 3.8-2 10.8-18.5 3.1 15.8-67.5c.8-3.2 3.3-5.7 6.7-6.2l15-2.5 25.7 65.6zm-92.7 16.6c-7.9 1.2-15.8.9-20.2-.3l.7-15.4c4.3 1.2 9.7 2.8 18.1 1.4.2 0 .5-.1.7-.1 5.1-.9 10.1-3.8 9.4-8.4-.5-3-3.1-4.7-10.5-6.9-7.2-2.1-17-6.1-18.5-15.9-2.1-13.3 8.6-24.6 26-27.5 6.8-1.1 12.5-.6 17 .2l-.7 14.9c-6.2-1.7-11.4-1.4-14.9-.8-1.3.2-2.3.5-3 .7-5 1.5-6.9 4.5-6.5 6.9 1.2 8.1 26.2 4.8 29.2 22.8 2.3 14.2-8.3 25.3-26.8 28.4z" class="st9"/><path d="M467 946c1.3 1.1 2.4 2.3 3.3 3.8s1.6 3.1 2 4.8.5 3.5.4 5.2-.6 3.3-1.2 4.9c-.9 2.1.1 4.5 2.2 5.4s4.5-.1 5.4-2.2c1-2.3 1.6-4.8 1.9-7.4.2-2.6.1-5.2-.6-7.9s-1.7-5.1-3-7.3c-1.4-2.2-3.1-4.1-5-5.8-1.8-1.5-4.4-1.2-5.8.5-1.6 1.9-1.3 4.6.4 6m12-10.8c4.2 4.2 7.3 9.5 8.8 15.8 1.5 6.2 1.1 12.4-.8 18-.7 2.2.5 4.5 2.6 5.2 2.2.7 4.5-.5 5.2-2.6 2.3-7 2.8-14.8.9-22.6-1.8-7.7-5.8-14.5-11-19.7-1.6-1.6-4.2-1.6-5.9 0-1.4 1.7-1.4 4.3.2 5.9m12.8-11.1c5.9 6.2 10.3 14 12.5 23 2.1 9 1.7 17.9-.8 26.1-.7 2.2.6 4.5 2.8 5.2 2.2.7 4.5-.6 5.2-2.8 2.9-9.6 3.4-20 .9-30.5s-7.6-19.6-14.5-26.8c-1.6-1.7-4.2-1.7-5.9-.1-1.7 1.6-1.7 4.2-.2 5.9m12.8-11.2c7.7 8.2 13.4 18.5 16.2 30.2s2.3 23.5-.8 34.3c-.6 2.2.6 4.5 2.8 5.1s4.5-.6 5.1-2.8c3.5-12.1 4.1-25.3.9-38.5-3.1-13.2-9.6-24.7-18.2-34-1.6-1.7-4.2-1.8-5.9-.2-1.6 1.6-1.6 4.2-.1 5.9" class="st9"/><linearGradient id="SVGID_00000174599926025154540720000006734896363091450016_" x1="444.326" x2="301.947" y1="164.492" y2="164.492" gradientTransform="translate(-.001 814.009)" gradientUnits="userSpaceOnUse"><stop offset="0" style="stop-color:#eeece8"/><stop offset=".58" style="stop-color:#dbdad4"/><stop offset="1" style="stop-color:#eeece8"/></linearGradient><path d="m313.9 939.5 101.4-18c7.9-1.4 15.4 3.9 16.8 11.7l12 67.5c1.4 7.9-3.9 15.4-11.7 16.8l-101.4 18c-7.9 1.4-15.4-3.9-16.8-11.7l-12-67.5c-1.5-7.8 3.8-15.4 11.7-16.8z" style="fill:url(#SVGID_00000174599926025154540720000006734896363091450016_);stroke:#3d3d3d;stroke-width:.5;stroke-miterlimit:10"/><path d="M340.1 966c28.7 15.2 6.5 36.3 6.5 36.3l-35.2 6-6.4-36.1 35.1-6.2c-3-24.1 7.1-32.4 7.1-32.4l33.6-6 7.8 6.2M435 949.6l-35.8 6.2s-11.5 6.3-7.5 22.8c1.4 5.1 1.6 10 12.1 12.1 1.2 1.2 37.8-4.2 37.8-4.2M346.7 1002.3s.2 21.3 18 27.3" class="st21"/><path d="M397.9 1023.4s11.9-12.2 5.9-32.7" class="st21"/><defs><path id="SVGID_00000150822209329550099230000005698112309185913012_" d="M191.3 805.8 180.7 751c-.8-4.3 2-8.5 6.3-9.3l266.3-51.3c4.3-.8 8.5 2 9.3 6.3l10.6 54.8c.8 4.3-2 8.5-6.3 9.3l-266.3 51.3c-4.3.9-8.5-2-9.3-6.3z"/></defs><clipPath id="SVGID_00000035518424406218973160000016537003246434838914_"><use xlink:href="#SVGID_00000150822209329550099230000005698112309185913012_" style="overflow:visible"/></clipPath><g style="clip-path:url(#SVGID_00000035518424406218973160000016537003246434838914_)"><path d="M192 809.7c.4 2.2 2.5 3.6 4.7 3.2l274.1-52.8c2.2-.4 3.6-2.5 3.2-4.7l-12.1-62.6c-.4-2.2-2.5-3.6-4.7-3.2l-274.1 52.8c-2.2.4-3.6 2.5-3.2 4.7l12.1 62.6z" class="st7"/><path d="m192.7 813.6 281.9-54.3-1.6-8-281.9 54.3 1.6 8z" class="st8"/><path d="m423.7 716.2.9 17.1-21.7-14.3 1.8 29.1 5.1-1-1-18.9 21.7 15.3-1.4-28.3-5.4 1zM232.1 757.7l-.2-4.5-16 3.1 1.6 27.9s15.9-2.8 15.8-3.1c-.1-.3-.3-4.4-.3-4.4l-10.6 2-.4-8 10.6-2-.2-4.7-10.6 2-.3-6.3 10.6-2zM204.1 763.1l9.2-1.8-.4-4.5-14.6 2.8 1.5 27.8 5.3-1-.5-12.4 9.3-1.8-.2-4.6-9.3 1.8-.3-6.3zM275.2 744.8l.2 4.5-10.6 2 .3 6.3 10.6-2 .2 4.7-10.6 2 .4 8 10.6-2s.2 4.1.3 4.4c.1.3-15.8 3.1-15.8 3.1l-1.6-27.9 16-3.1z" class="st9"/><path d="m242.2 751.2-7.2 1.4 1.6 27.9 5.2-1 .3-.1c.9-.1 7.1-.8 10.7-3.6 0 0 7.6-4.4 5.3-15.6.2-.1-2.3-10.3-15.9-9zm5.7 22.5s-5.1 1.3-6.1 1.3v.1h-.2l-1.1-19 3.9-.8s5.6-1.1 8.4 4.7v.1c2.9 5.9-.7 12.3-4.9 13.6zM286.2 742.7c8.4-1.2 9.6 5.9 9.6 5.9.8 7.2-4.9 9.3-4.9 9.3l9 10.4-5.5 1.1-8.8-9.9-.7.1.7 11.5-5.4 1-1.6-27.9 7.6-1.5zm-2.1 4.9.4 7.8 2.7-.5c5.3-1.7 3.2-6.5 3.2-6.5-1.2-2.6-6.3-.8-6.3-.8zM300.6 768.1l6.1-1.2 2.5-6.5 10.4-2 2.9 5.5 5.6-1.1-14.7-26.5-12.8 31.8zm10.4-12.6 3-7.8 3.4 6.6-6.4 1.2z" class="st10"/><path d="m327.6 734.8 5.1-1 1.5 23.4 9-1.7.3 4.4-14.5 2.8-1.4-27.9z" class="st9"/><path d="m375.3 753.7 6.1-1.2 2.5-6.5 10.4-2 2.9 5.5 5.6-1.1-14.8-26.5-12.7 31.8zm10.4-12.5 3-7.8 3.4 6.6-6.4 1.2zM371.5 732.3c1.9 3.9-1.8 7.8-1.8 7.8 8 3.5 4.4 10.4 4.4 10.4-1.8 3.9-8.9 5.2-8.9 5.2-1.1.2-2 .3-2.7.4v.1l-5.5 1.1-1.6-27.9 7-1.4c7.6-.8 9.1 4.3 9.1 4.3zm-8.9 19.5c5.5-.4 6.5-2.4 6.5-2.4 2.1-6-3.3-6.1-3.3-6.1-.8-.2-2.9.2-3.7.5l.4 8.1.1-.1zm-1.1-19.5v.5l.4 6.9 2.8-.7c4.6-2.7 1.5-6.1 1.5-6.1-1.5-1.4-4.7-.6-4.7-.6z" class="st10"/><path d="m447 711.8 6.1-1.2-10.2 14.2 14.7 13-6.3 1.2-11.7-9.7-.7 1 .6 11.1-5.5 1.1-1.6-27.9 5.5-1 .5 9.7 8.6-11.5z" class="st9"/></g></g></svg>
