<svg xmlns="http://www.w3.org/2000/svg" width="52" height="52" fill="none"  xmlns:v="https://vecta.io/nano"><path d="M31.331 12.825c0-3.206 2.699-5.797 6.024-5.797s6.027 2.596 6.027 5.797-2.699 5.797-6.027 5.797-6.024-2.591-6.024-5.797zM48 35.662h-1.347c-2.763 0-4.156-1.96-4.156-5.047v-5.797h-10.21v8.216c0 8.927 5.918 12.674 11.646 12.674H48V35.662zM14.226 38.42c0-2.986 1.652-4.344 5.007-4.344h8.325v-9.284H14.226v-3.833c0-3.032 2.617-4.68 5.742-4.68h7.577V7H17.363C9.362 7 4 11.234 4 20.11v25.575h10.226V38.42z" fill="#00b899"/></svg>